<svg xmlns="http://www.w3.org/2000/svg" width="100%" height="auto" viewBox="0 0 1024 320" version="1.1">
	<path d="M 126.434 16.290 C 125.298 16.956, 119.466 22.675, 113.474 29 C 107.481 35.325, 91.986 51.142, 79.039 64.148 C 66.093 77.154, 50.199 93.166, 43.720 99.729 L 31.940 111.663 31.939 207.441 C 31.938 278.323, 32.238 303.582, 33.091 304.610 C 34.061 305.779, 49.292 306, 128.743 306 L 223.242 306 271.638 257.664 L 320.034 209.329 319.980 113.786 C 319.929 24.893, 319.806 18.135, 318.213 16.694 C 316.692 15.319, 305.940 15.141, 222.500 15.113 C 150.729 15.088, 128.012 15.367, 126.434 16.290 M 468 20.500 C 464.703 23.531, 458.457 29.946, 454.119 34.755 C 449.782 39.565, 438.688 50.925, 429.465 60 C 407.504 81.611, 390.029 99.070, 383.323 106.100 L 377.922 111.763 377.904 207.886 C 377.895 260.753, 378.164 304.456, 378.503 305.004 C 378.904 305.654, 412.619 306, 475.581 306 L 572.044 306 577.272 300.616 C 580.147 297.655, 583.232 294.392, 584.127 293.366 C 585.022 292.340, 603.625 273.725, 625.468 252 C 647.310 230.275, 665.815 211.285, 666.590 209.800 C 668.576 205.995, 668.715 17.838, 666.733 16.193 C 665.867 15.475, 635.119 15.117, 569.730 15.065 L 473.994 14.989 468 20.500 M 818.335 15.983 C 816.053 16.921, 724.568 108.244, 722.901 111.249 C 722.293 112.345, 721.936 148.708, 721.944 208.676 C 721.954 284.984, 722.214 304.519, 723.228 305.162 C 723.928 305.606, 767.178 305.976, 819.339 305.985 L 914.178 306 953.287 266.750 C 974.797 245.162, 996.335 223.344, 1001.150 218.263 L 1009.903 209.027 1009.949 113.839 C 1009.990 28.232, 1009.835 18.475, 1008.406 16.897 C 1006.914 15.247, 1001.202 15.140, 913.659 15.118 C 861.528 15.105, 819.547 15.486, 818.335 15.983 M 127.982 24.373 C 126.067 25.678, 121.730 29.840, 118.344 33.623 C 114.958 37.405, 97.999 54.759, 80.658 72.186 C 50.746 102.248, 45.073 108.406, 46.228 109.561 C 46.502 109.835, 85.342 110.040, 132.539 110.017 C 213.729 109.976, 218.506 109.876, 221.223 108.156 C 223.902 106.460, 286.383 44.852, 299.345 31.127 C 302.962 27.297, 304.975 24.378, 304.626 23.469 C 304.137 22.193, 292.734 22, 217.764 22 L 131.464 22 127.982 24.373 M 477.548 22.726 C 474.871 23.410, 392 106.405, 392 108.401 C 392 109.854, 400.019 110, 480.025 110 L 568.050 110 574.775 103.788 C 590.468 89.293, 654.079 24.737, 653.723 23.668 C 653.430 22.791, 631.706 22.466, 566.417 22.363 C 518.613 22.288, 478.621 22.451, 477.548 22.726 M 820.500 23.201 C 817.820 24.729, 738.458 104.277, 737.120 106.775 C 736.543 107.854, 736.355 109.021, 736.702 109.369 C 737.049 109.716, 776.071 109.984, 823.417 109.965 C 889.032 109.938, 910.015 109.640, 911.667 108.715 C 914.692 107.018, 923.725 98.177, 960.500 60.916 C 991.500 29.507, 996.580 23.913, 995.281 22.615 C 994.943 22.277, 955.929 22.014, 908.583 22.030 C 846.019 22.053, 821.954 22.372, 820.500 23.201 M 309.500 31.005 C 308.400 31.429, 305.925 33.679, 304 36.005 C 302.075 38.331, 293.813 46.819, 285.640 54.867 C 248.105 91.830, 228.608 111.778, 226.879 114.985 C 225.082 118.318, 225.001 122.200, 225.015 203.985 C 225.024 253.798, 225.412 290.102, 225.943 290.943 C 226.656 292.069, 229.643 289.654, 239.549 279.943 C 246.530 273.099, 255.225 264.372, 258.871 260.548 C 262.517 256.725, 267.516 251.775, 269.980 249.548 C 281.127 239.475, 309.318 210.135, 311.064 206.790 C 312.935 203.204, 313 200.191, 313 117.099 C 313 69.809, 312.663 30.919, 312.250 30.676 C 311.837 30.434, 310.600 30.581, 309.500 31.005 M 654.998 32.750 C 652.250 36.270, 641.195 47.535, 616.340 72.143 C 605.428 82.946, 591.438 96.966, 585.250 103.298 L 574 114.812 573.850 201.406 C 573.768 249.033, 573.655 288.556, 573.600 289.236 C 573.234 293.764, 579.741 288.026, 616.162 251.705 C 637.880 230.046, 656.808 210.790, 658.223 208.913 C 661.535 204.521, 661.391 209.285, 661.177 111.250 C 661.004 31.748, 660.959 30, 659.073 30 C 658.012 30, 656.179 31.238, 654.998 32.750 M 995.170 34.961 C 992.601 37.811, 974.138 56.648, 954.141 76.822 C 934.143 96.995, 917.380 114.542, 916.891 115.815 C 916.395 117.105, 916 156.419, 916 204.565 C 916 286.251, 916.096 291, 917.752 291 C 919.856 291, 999.172 211.502, 1001.436 207.123 C 1002.840 204.409, 1002.983 194.640, 1002.756 117.372 C 1002.546 46.283, 1002.260 30.587, 1001.170 30.223 C 1000.438 29.979, 997.738 32.112, 995.170 34.961 M 162.426 44.310 C 160.124 46.290, 159.896 46.938, 160.865 48.748 C 162.303 51.434, 162.360 70.923, 160.941 74.655 C 159.272 79.044, 161.395 79.857, 174.014 79.660 C 184.565 79.495, 184.968 79.405, 187.940 76.558 C 190.377 74.223, 191 72.793, 191 69.535 C 191 67.286, 190.271 64.404, 189.380 63.133 C 188.087 61.286, 187.986 60.325, 188.880 58.363 C 190.952 53.815, 190.240 50.307, 186.481 46.547 C 183.132 43.199, 182.660 43.040, 176.731 43.264 C 173.304 43.394, 169.290 43.161, 167.810 42.746 C 165.731 42.163, 164.509 42.519, 162.426 44.310 M 841.496 44.004 C 839.904 45.764, 839.833 46.465, 840.917 49.754 C 842.025 53.115, 841.984 65.365, 840.831 75.373 C 840.424 78.905, 842.626 80.562, 846.452 79.601 C 848.956 78.973, 849.149 78.609, 848.524 75.704 C 847.325 70.137, 846.788 60.999, 847.661 61.013 C 848.123 61.020, 850.300 64.901, 852.500 69.636 C 854.700 74.371, 857.027 78.450, 857.672 78.700 C 860.100 79.641, 862.731 76.918, 865.059 71.058 C 868.668 61.972, 871.356 63.154, 870.302 73.363 C 869.745 78.764, 869.797 78.911, 872.506 79.591 C 876.844 80.680, 880.564 78.921, 880.190 75.957 C 879.015 66.664, 878.983 51.400, 880.133 49.251 C 881.813 46.112, 880.259 43.597, 876.399 43.206 C 871.961 42.756, 869.996 44.934, 866.581 54.090 C 863.863 61.377, 863.129 62.500, 861.082 62.500 C 859.074 62.500, 858.176 61.238, 855.083 54.061 C 852.440 47.928, 850.634 45.128, 848.473 43.816 C 844.688 41.517, 843.723 41.543, 841.496 44.004 M 502.076 48.409 C 501.298 49.346, 501.253 51.731, 501.924 56.468 C 502.542 60.830, 502.522 66.373, 501.869 72.228 C 501.156 78.608, 501.177 81.577, 501.938 82.338 C 503.265 83.665, 524.577 83.297, 527.183 81.902 C 529.382 80.725, 532 75.863, 532 72.954 C 532 71.774, 531.044 69.466, 529.876 67.825 C 528.106 65.340, 527.939 64.430, 528.876 62.374 C 530.795 58.160, 530.211 54.268, 527.143 50.834 C 524.310 47.663, 524.198 47.634, 513.733 47.357 C 505.893 47.150, 502.896 47.420, 502.076 48.409 M 171.714 49.619 C 170.462 50.871, 170.947 56.711, 172.404 57.921 C 174.521 59.678, 178.917 58.179, 179.597 55.469 C 180.680 51.153, 179.732 49.521, 175.956 49.202 C 174.016 49.039, 172.107 49.226, 171.714 49.619 M 512.378 53.169 C 511.128 55.147, 511.044 60.317, 512.238 61.773 C 514.198 64.161, 521 60.430, 521 56.967 C 521 53.662, 514.011 50.583, 512.378 53.169 M 172.517 64.625 C 170.478 66.665, 170.887 71.915, 173.197 73.361 C 174.343 74.078, 175.805 74.105, 177.697 73.443 C 181.663 72.057, 182.020 67.947, 178.420 65.116 C 175.187 62.573, 174.617 62.526, 172.517 64.625 M 512.200 69.200 C 510.633 70.767, 510.722 74.050, 512.392 76.250 C 514.043 78.425, 518.336 78.521, 520.429 76.429 C 523.216 73.641, 522.136 70.763, 517.665 69.063 C 514.134 67.720, 513.668 67.732, 512.200 69.200 M 40.250 117.706 L 38 118.139 38 207.534 C 38 293.786, 38.066 296.965, 39.867 297.929 C 41.065 298.570, 73.064 298.974, 129.117 299.055 L 216.500 299.181 218 296.341 C 219.311 293.857, 219.437 282.529, 219 206.213 C 218.564 130.081, 218.308 118.805, 217 117.979 C 215.532 117.051, 45.016 116.788, 40.250 117.706 M 385.250 117.662 C 384.263 118.061, 384 136.979, 384 207.548 C 384 294.894, 384.044 296.953, 385.934 297.965 C 388.981 299.595, 564.444 299.386, 565.762 297.750 C 566.986 296.231, 566.916 120.143, 565.691 118.250 C 565.053 117.264, 546.016 117.017, 475.691 117.079 C 426.636 117.122, 385.938 117.385, 385.250 117.662 M 729.571 118.571 C 728.167 119.976, 728 129.456, 728 207.916 C 728 291.680, 728.084 295.766, 729.829 297.345 C 731.501 298.858, 739.123 299, 818.894 299 C 877.117 299, 906.775 298.656, 908.066 297.965 C 909.956 296.953, 910 294.898, 910 207.940 L 910 118.950 907.435 117.975 C 905.840 117.369, 872.026 117, 818.006 117 C 740.373 117, 730.976 117.167, 729.571 118.571 M 252.715 147.641 C 249.627 149.259, 249.358 150.223, 251.500 152 C 253.671 153.802, 253.653 175.074, 251.477 178.394 C 249.318 181.690, 251.444 183.205, 257.672 182.808 C 262.083 182.527, 262.527 182.267, 262.812 179.799 C 262.983 178.314, 262.604 176.128, 261.969 174.942 C 261.145 173.403, 261.123 172.477, 261.891 171.709 C 262.659 170.941, 263.822 171.473, 265.956 173.567 C 267.599 175.180, 268.957 176.978, 268.972 177.561 C 269.036 180.003, 273.160 183, 276.457 183 C 280.254 183, 283 182.168, 283 181.018 C 283 180.596, 281.005 178.168, 278.567 175.624 C 272.759 169.562, 272.282 167.821, 275.321 163.765 C 276.667 161.969, 278.068 159.510, 278.435 158.300 C 279.255 155.599, 276.797 150.544, 273.729 148.624 C 270.402 146.541, 256.091 145.872, 252.715 147.641 M 934.181 147.228 C 932.398 148.104, 932.035 148.844, 932.611 150.433 C 933.870 153.908, 934.242 176.158, 933.061 177.339 C 931.438 178.962, 931.797 181.821, 933.756 182.870 C 934.736 183.394, 940.312 183.564, 946.374 183.255 C 955.532 182.788, 957.626 182.366, 959.717 180.567 C 962.901 177.829, 964.066 170.130, 961.606 168.088 C 959.732 166.532, 959.542 163.725, 961.112 160.790 C 962.621 157.972, 960.460 151.507, 957.136 148.893 C 955.270 147.425, 953.361 146.991, 949.570 147.175 C 946.782 147.311, 942.700 147.121, 940.500 146.755 C 938.134 146.361, 935.553 146.554, 934.181 147.228 M 591.250 147.662 C 589.696 148.289, 589.622 151.222, 591.122 152.722 C 591.810 153.410, 592.255 158.055, 592.274 164.726 C 592.297 173.368, 591.949 176.148, 590.583 178.232 C 588.933 180.751, 588.945 180.900, 590.866 181.928 C 593.354 183.260, 598.678 183.329, 599.475 182.041 C 599.801 181.513, 599.327 178.819, 598.422 176.053 C 597.445 173.066, 597.052 169.928, 597.454 168.327 L 598.131 165.631 600.529 168.566 C 601.849 170.179, 602.944 171.920, 602.964 172.434 C 602.984 172.948, 603.940 175.311, 605.089 177.684 C 606.649 180.906, 607.759 182, 609.467 182 C 612.407 182, 613.407 180.723, 615.731 174 C 618.492 166.010, 620.500 166.610, 620.500 175.424 C 620.500 182.187, 620.566 182.365, 623.345 183.113 C 626.294 183.906, 630.329 182.895, 631.449 181.082 C 631.803 180.510, 631.629 179.175, 631.062 178.116 C 629.483 175.165, 629.326 154.966, 630.861 152.186 C 632.634 148.976, 630.794 147, 626.033 147 C 622.588 147, 619 149.271, 619 151.450 C 619 154.264, 613.420 165.918, 611.880 166.321 C 609.672 166.899, 609.307 166.404, 605 157 C 603.111 152.875, 601.158 148.938, 600.660 148.250 C 599.777 147.031, 593.748 146.654, 591.250 147.662 M 943 156.531 C 943 161.645, 944.521 162.903, 948.867 161.383 C 950.719 160.736, 951.596 159.635, 951.822 157.671 C 952.258 153.898, 950.436 152, 946.378 152 C 943.038 152, 943 152.051, 943 156.531 M 262.667 153.667 C 262.300 154.033, 262 155.833, 262 157.667 C 262 160.543, 262.338 161, 264.465 161 C 267.626 161, 269.505 157.812, 268 155 C 266.960 153.056, 264.014 152.319, 262.667 153.667 M 943.667 168.667 C 943.300 169.033, 943 171.283, 943 173.667 L 943 178 946.965 178 C 951.436 178, 953.597 175.516, 952.596 171.526 C 951.894 168.730, 945.615 166.719, 943.667 168.667 M 795.297 196.794 C 792.109 197.275, 791.461 200.461, 794.029 203.029 C 796.015 205.015, 796.127 205.920, 795.678 216.330 C 795.413 222.473, 794.884 228.474, 794.504 229.664 C 793.998 231.245, 794.336 232.109, 795.754 232.868 C 798.312 234.237, 803.670 232.778, 803.032 230.887 C 802.042 227.956, 801.877 213, 802.833 213 C 803.674 213, 808.806 218.701, 814 225.405 C 822.393 236.238, 825.656 233.760, 824.650 217.317 C 824.125 208.737, 824.307 206.424, 825.744 203.411 C 827.442 199.850, 827.433 199.769, 825.123 197.898 C 821.977 195.351, 820.369 195.507, 818.374 198.551 C 817.116 200.472, 816.986 201.386, 817.851 202.251 C 818.483 202.883, 819 206.010, 819 209.200 C 819 215.762, 817.397 216.864, 814.297 212.431 C 812.101 209.291, 805.543 201.104, 803.421 198.854 C 801.717 197.046, 798.699 196.281, 795.297 196.794 M 127.186 200.491 C 126.108 201.862, 124.928 204.568, 124.565 206.506 C 123.905 210.024, 117.768 223.160, 115.457 226 C 114.786 226.825, 113.929 228.509, 113.553 229.742 C 112.633 232.762, 116.314 234.592, 120.278 233.084 C 122.599 232.202, 123 231.474, 123 228.146 C 123 224.826, 123.411 224.075, 125.750 223.123 C 127.428 222.440, 129.657 222.320, 131.468 222.815 C 133.927 223.488, 134.620 224.385, 135.513 228.055 C 136.768 233.210, 140.037 235.097, 144.750 233.390 C 147.963 232.226, 148.095 229.367, 145.129 225.145 C 144.107 223.690, 141.594 218.237, 139.545 213.027 C 135.508 202.764, 132.641 198, 130.504 198 C 129.757 198, 128.263 199.121, 127.186 200.491 M 456.114 201.707 C 454.103 203.335, 453.909 203.962, 454.867 205.751 C 456.235 208.308, 456.380 230.850, 455.042 232.966 C 453.564 235.304, 455.816 237.002, 460.372 236.985 C 466.378 236.962, 467.530 235.958, 466.135 231.958 C 464.724 227.910, 464.668 224, 466.021 224 C 466.582 224, 468.494 226.107, 470.271 228.683 C 475.289 235.960, 476.606 237, 480.800 237 C 487.421 237, 487.552 235.364, 481.460 228.783 C 478.457 225.540, 476.013 222.349, 476.028 221.693 C 476.043 221.037, 477.393 218.732, 479.028 216.572 C 482.872 211.491, 482.887 207.733, 479.077 203.923 C 476.870 201.716, 475.216 200.998, 472.327 200.991 C 470.222 200.987, 466.249 200.712, 463.497 200.381 C 459.449 199.895, 458.039 200.148, 456.114 201.707 M 466.200 207.200 C 465.540 207.860, 465 209.885, 465 211.700 C 465 214.477, 465.365 215, 467.300 215 C 468.565 215, 470.140 214.460, 470.800 213.800 C 473.187 211.413, 471.591 206, 468.500 206 C 467.895 206, 466.860 206.540, 466.200 207.200 M 128.500 214 C 127.771 215.180, 128.717 217, 130.059 217 C 130.577 217, 131 216.100, 131 215 C 131 212.891, 129.545 212.309, 128.500 214" stroke="none" fill="black" fill-rule="evenodd"/>
</svg>