<svg xmlns="http://www.w3.org/2000/svg" width="100%" height="auto" viewBox="0 0 224 348" version="1.1">
	<path d="M 137.842 9.425 C 134.180 10.694, 129.836 12.693, 128.188 13.866 C 124.221 16.691, 122.352 16.541, 117.095 12.979 C 111.543 9.217, 105.729 7.628, 100.257 8.378 C 95.422 9.041, 88 12.506, 88 14.100 C 88 15.731, 82.032 14.161, 77.771 11.409 C 73.593 8.710, 68.563 8.326, 61.309 10.152 C 58.361 10.895, 56.564 11.950, 56.259 13.119 C 55.374 16.501, 49.187 16.642, 42.885 13.424 C 38.107 10.984, 34.628 10.934, 26.500 13.190 C 17.986 15.554, 13.945 18.162, 10.140 23.751 C 8.120 26.718, 7.839 28.137, 8.188 33.614 C 8.570 39.615, 8.872 40.294, 13.044 44.545 L 17.493 49.078 17.758 66.973 C 17.903 76.815, 17.620 85.117, 17.127 85.421 C 15.126 86.658, 13.762 80.037, 14.467 72.508 C 14.919 67.683, 14.812 65, 14.167 65 C 12.294 65, 8.925 71.840, 8.332 76.847 C 7.605 82.985, 8.269 85.770, 11.228 89 C 16.436 94.684, 16.913 96.276, 17.618 110.316 C 17.989 117.728, 17.982 124.605, 17.600 125.599 C 16.990 127.190, 16.673 127.052, 14.960 124.453 C 12.799 121.175, 12.385 114.958, 14.140 112.148 C 14.915 110.906, 14.963 109.757, 14.290 108.554 C 13.395 106.954, 13.013 107.095, 10.254 110.047 C 4.176 116.551, 5.222 124.646, 13.111 132.152 C 17.715 136.534, 18 137.101, 18 141.902 C 18 145.558, 17.468 147.532, 16.120 148.880 C 13.512 151.488, 10.710 160.404, 11.447 163.748 C 11.781 165.262, 13.392 167.563, 15.027 168.863 L 18 171.225 18 185.054 C 18 192.659, 17.618 199.118, 17.151 199.407 C 15.235 200.591, 13.877 195.503, 14.896 190.966 C 15.448 188.510, 15.525 186.125, 15.067 185.667 C 13.842 184.442, 10.318 188.659, 9.611 192.194 C 8.163 199.437, 9.858 203.841, 15.148 206.577 C 17.749 207.922, 17.994 208.511, 17.930 213.276 C 17.858 218.625, 16.967 222.184, 15.721 222.101 C 12.209 221.867, 10.202 226.770, 11.939 231.339 C 12.736 233.437, 12.525 235.130, 10.977 239.057 C 9.200 243.565, 9.144 244.377, 10.431 246.867 C 12.203 250.294, 14.364 252.161, 16.122 251.785 C 17.121 251.572, 17.642 253.887, 18.197 261 C 18.604 266.225, 19.064 271.574, 19.219 272.887 L 19.500 275.274 34.787 275.387 C 51.059 275.507, 53.077 276.119, 50.859 280.263 C 50.132 281.622, 50.277 282.773, 51.388 284.470 C 52.679 286.440, 53.692 286.781, 57.874 286.653 C 60.599 286.569, 63.192 286.862, 63.635 287.304 C 64.078 287.746, 64.618 291.241, 64.834 295.070 C 65.201 301.567, 65.057 302.167, 62.681 304.037 C 61.280 305.138, 59.991 307.043, 59.817 308.270 C 59.531 310.279, 58.801 310.550, 52.449 311 C 48.064 311.311, 44.361 312.181, 42.654 313.303 C 35.240 318.172, 37.442 327.426, 46.601 329.893 C 51.570 331.231, 76.803 330.408, 78.684 328.847 C 79.629 328.063, 80 324.591, 80 316.538 C 80 305.544, 79.950 305.298, 77.500 304.182 C 75.202 303.135, 75 302.512, 75 296.456 C 75 286.919, 75.775 285.920, 82.710 286.510 C 90.412 287.165, 93.110 285.450, 92.293 280.416 C 91.902 278.009, 92.134 276.535, 92.985 276.009 C 93.689 275.574, 103.631 275.206, 115.078 275.191 C 138.448 275.161, 138.646 275.219, 137.535 281.794 C 136.737 286.518, 138.617 288.500, 143.896 288.500 C 147.044 288.500, 147.535 288.849, 148.108 291.500 C 148.464 293.150, 148.536 301.475, 148.267 310 C 147.747 326.491, 148.669 332.349, 151.425 330.062 C 152.385 329.266, 155.408 329.116, 161.159 329.581 C 173.126 330.549, 175.156 330.441, 180.897 328.534 C 184.633 327.293, 186.449 326.033, 187.540 323.922 C 189.962 319.238, 187.147 312, 182.904 312 C 181.922 312, 180.877 311.609, 180.581 311.132 C 180.286 310.654, 177.577 310.241, 174.560 310.214 C 168.007 310.155, 167 309.650, 167 306.420 C 167 304.771, 166.183 303.585, 164.530 302.832 C 162.229 301.783, 162.096 301.326, 162.579 296.105 C 162.864 293.023, 163.413 290.213, 163.799 289.860 C 164.184 289.507, 167.275 289.030, 170.666 288.801 C 178.564 288.268, 180 287.059, 180 280.945 C 180 275.194, 180.005 275.192, 192.500 275.434 C 197.450 275.531, 202.063 275.192, 202.750 274.682 C 203.578 274.068, 204 270.905, 204 265.312 C 204 256.749, 205.023 253, 207.361 253 C 208.071 253, 209.574 251.988, 210.701 250.750 C 214.757 246.296, 215.043 244.779, 213.491 235.947 C 212.342 229.412, 212.291 227.354, 213.253 226.195 C 214.260 224.982, 213.649 224.003, 209.736 220.559 C 204.650 216.084, 203.454 211.964, 206.712 210.141 C 208.014 209.413, 208.522 207.447, 208.834 201.938 C 209.192 195.597, 208.993 194.493, 207.238 193.096 C 205.522 191.730, 205.159 189.950, 204.724 180.750 C 204.439 174.735, 204.608 170, 205.108 170 C 205.598 170, 206.007 171.912, 206.015 174.250 C 206.024 176.588, 206.457 179.175, 206.979 180 C 207.812 181.318, 208.131 181.296, 209.603 179.825 C 212.041 177.388, 212.624 168.921, 210.619 165.091 C 209.728 163.391, 208.314 160.695, 207.476 159.099 C 206.247 156.758, 206.181 155.697, 207.137 153.599 C 207.788 152.170, 208.664 151, 209.083 151 C 209.502 151, 210.381 149.375, 211.037 147.389 C 212.826 141.968, 211.484 134.399, 207.942 129.926 C 204.614 125.725, 204.307 123.241, 206.573 118.859 C 208.025 116.051, 208.010 115.669, 206.385 113.873 C 203.998 111.235, 203.675 97.500, 206 97.500 C 207.197 97.500, 207.558 99.267, 207.789 106.250 C 207.948 111.063, 208.441 115, 208.884 115 C 210.593 115, 212.704 111.288, 213.778 106.391 C 215.165 100.071, 213.878 95.150, 209.659 90.640 C 205.592 86.292, 204.928 83.481, 204.289 67.892 C 203.670 52.815, 204.518 50.315, 207.846 57.397 C 211.269 64.678, 211.422 66.591, 209.030 72.152 C 207.073 76.702, 206.997 77.426, 208.338 78.766 C 209.679 80.107, 210.103 79.992, 212.212 77.716 C 215.178 74.516, 217.422 66.061, 216.545 61.390 C 216.182 59.451, 215.016 56.433, 213.954 54.683 C 210.597 49.145, 209.937 46.852, 210.630 43.127 C 211.001 41.132, 212.136 38.912, 213.152 38.193 C 214.528 37.220, 215 35.611, 215 31.894 C 215 29.148, 215.592 25.686, 216.315 24.200 C 218.444 19.826, 217.415 17.252, 212.048 13.534 C 208.702 11.215, 207.637 10.979, 203.167 11.572 C 200.160 11.971, 197.394 13.012, 196.389 14.123 C 193.353 17.477, 186.060 15.961, 182.465 11.230 C 180.923 9.201, 174.047 8.658, 169.500 10.206 C 166.297 11.296, 165.547 12.009, 165.738 13.784 C 165.997 16.187, 165.035 16.635, 163.313 14.913 C 162.530 14.130, 162.038 14.130, 161.554 14.913 C 160.391 16.794, 157.072 16.098, 154.813 13.500 C 153.618 12.125, 152.229 11, 151.727 11 C 151.226 11, 149.671 10.100, 148.273 9 C 145.237 6.612, 146.054 6.579, 137.842 9.425 M 64.199 14.986 C 58.852 16.253, 59.273 17, 65.333 17 C 70.789 17, 72.715 15.872, 69.418 14.607 C 68.548 14.273, 67.761 14.046, 67.668 14.102 C 67.576 14.159, 66.015 14.556, 64.199 14.986 M 95.500 14.713 C 90.265 15.972, 92.197 17, 99.800 17 C 107.443 17, 110.126 16.030, 106.418 14.607 C 104.639 13.924, 98.533 13.983, 95.500 14.713 M 135 15.259 C 132.766 16.271, 133.245 16.458, 139.500 17.013 C 146.583 17.643, 149.819 16.761, 146.992 14.974 C 144.977 13.700, 138.080 13.864, 135 15.259 M 169.500 16 C 169.140 16.582, 170.137 17, 171.882 17 C 173.532 17, 175.160 16.550, 175.500 16 C 175.860 15.418, 174.863 15, 173.118 15 C 171.468 15, 169.840 15.450, 169.500 16 M 204.218 29.668 C 204.400 37.178, 204.900 41.470, 205.623 41.709 C 206.240 41.914, 207.003 41.276, 207.318 40.291 C 207.633 39.306, 208.980 35.409, 210.311 31.632 L 212.732 24.764 209.762 21.382 C 204.570 15.468, 203.900 16.469, 204.218 29.668 M 15.307 22.880 C 14.137 24.753, 14.249 36.976, 15.454 38.926 C 17.011 41.444, 17.999 38.423, 17.985 31.191 C 17.968 22.650, 17.111 19.991, 15.307 22.880 M 29.174 28.226 C 28.312 29.088, 28 40.777, 28 72.200 C 28 109.109, 28.201 115, 29.464 115 C 30.269 115, 31.957 113.538, 33.214 111.750 C 35.381 108.669, 35.797 108.512, 41.206 108.725 C 44.345 108.849, 47.174 108.528, 47.492 108.013 C 47.811 107.497, 46.931 104.823, 45.536 102.071 C 43.304 97.667, 43 95.818, 43 86.656 C 43 78.622, 43.342 75.961, 44.500 75 C 45.325 74.315, 46 72.572, 46 71.126 C 46 69.407, 47.816 66.357, 51.250 62.312 C 54.138 58.911, 56.862 56.099, 57.303 56.064 C 57.745 56.029, 59.658 54.763, 61.553 53.250 C 64.390 50.987, 65 49.830, 65 46.719 C 65 41.583, 67.493 40.647, 70.695 44.582 C 73.029 47.449, 73.097 47.465, 74.575 45.505 C 75.402 44.408, 75.949 42.383, 75.789 41.005 C 75.549 38.922, 75.922 38.500, 78 38.500 C 80.158 38.500, 80.542 39.003, 80.806 42.174 C 80.974 44.195, 81.718 46.351, 82.460 46.967 C 84.578 48.724, 88.910 47.075, 90.561 43.883 C 92.213 40.688, 95.676 39.991, 96.695 42.647 C 97.043 43.554, 96.813 45.657, 96.185 47.321 C 94.901 50.722, 96.013 53, 98.957 53 C 100.981 53, 112.482 64.792, 113.458 67.869 C 113.830 69.041, 114.464 70, 114.867 70 C 116.176 70, 118 67.642, 118 65.949 C 118 65.040, 120.925 61.531, 124.500 58.150 C 128.075 54.768, 131 51.652, 131 51.224 C 131 50.795, 130.296 49.439, 129.435 48.210 C 128.574 46.981, 128.011 44.744, 128.185 43.238 C 128.651 39.188, 131.659 39.755, 134.872 44.500 C 137.839 48.881, 141.761 50.198, 143.958 47.551 C 145.573 45.604, 147.776 45.591, 152.346 47.500 C 157.177 49.519, 157.859 49.412, 158.584 46.522 C 158.935 45.124, 160.554 43.371, 162.297 42.502 C 165.045 41.131, 165.555 41.126, 166.889 42.460 C 168.223 43.794, 168.198 44.361, 166.670 47.567 L 164.950 51.173 167.725 53.261 C 176.361 59.760, 181.231 67.536, 184.160 79.500 C 185.712 85.839, 183.887 99.005, 180.762 104.009 C 179.039 106.768, 180.731 108.048, 186.249 108.158 C 189.843 108.230, 190.938 108.655, 191.322 110.125 C 191.592 111.156, 192.310 112, 192.917 112 C 193.710 112, 193.948 100.072, 193.761 69.750 L 193.500 27.500 111.924 27.276 C 50.567 27.108, 30.057 27.343, 29.174 28.226 M 70.727 56 C 69.329 57.100, 67.627 58, 66.945 58 C 66.264 58, 63.749 59.603, 61.358 61.563 C 51.314 69.793, 46.886 81.537, 49.365 93.366 C 50.079 96.770, 51.506 100.893, 52.536 102.528 C 56.375 108.619, 62.245 115, 64.010 115 C 65.013 115, 65.983 115.356, 66.167 115.790 C 66.350 116.225, 69.011 117.758, 72.080 119.197 C 77.016 121.511, 78.170 121.696, 82.080 120.797 C 89.800 119.022, 97.317 114.805, 103 109.060 C 110.309 101.671, 112.091 96.687, 111.614 84.956 C 111.298 77.158, 110.904 75.570, 108.317 71.665 C 103.695 64.686, 95.096 57.749, 88.583 55.744 C 80.852 53.363, 73.953 53.462, 70.727 56 M 146 54.660 C 141.252 55.395, 135 57.262, 135 57.944 C 135 58.320, 132.930 60.174, 130.400 62.064 C 127.869 63.954, 124.959 67.141, 123.932 69.146 C 122.906 71.151, 121.329 73.528, 120.428 74.429 C 119.144 75.713, 118.781 78.162, 118.744 85.783 C 118.700 94.908, 118.892 95.848, 121.904 101.214 C 130.209 116.010, 145.125 122.367, 158.700 116.895 C 166.055 113.930, 169 112.104, 169 110.507 C 169 109.813, 169.668 108.691, 170.484 108.013 C 171.300 107.336, 173.325 104.276, 174.984 101.213 C 177.729 96.144, 178 94.802, 178 86.250 C 178 77.879, 177.710 76.361, 175.335 72.308 C 173.869 69.807, 171.619 66.710, 170.335 65.426 C 169.051 64.142, 168 62.632, 168 62.070 C 168 61.509, 165.863 60.120, 163.250 58.984 C 160.637 57.847, 157.306 56.261, 155.846 55.459 C 153.261 54.038, 151.128 53.865, 146 54.660 M 71.443 71.653 C 65.457 79.478, 65.297 88.945, 71.008 97.328 C 73.139 100.457, 74.050 100.987, 77.300 100.993 C 81.875 101.001, 85.493 99.238, 89.461 95.065 C 92.157 92.228, 92.421 91.333, 92.421 85.014 C 92.421 79.025, 92.085 77.717, 89.961 75.441 C 85.984 71.180, 82.551 69.112, 78.337 68.438 C 74.629 67.845, 74.204 68.043, 71.443 71.653 M 141.322 72.527 C 137.135 75.827, 135.604 80.673, 136.494 87.801 C 137.521 96.019, 141.966 100.892, 148.500 100.961 C 152.030 100.998, 157.822 97.733, 158.641 95.244 C 158.956 94.285, 159.841 92.082, 160.607 90.349 C 162.536 85.985, 162.343 83.230, 159.739 78 C 155.894 70.277, 147.385 67.748, 141.322 72.527 M 113.424 105.250 C 113.032 106.487, 111.651 108.893, 110.355 110.596 C 108.354 113.224, 108.153 114.140, 109.026 116.645 C 109.887 119.116, 109.643 120.374, 107.528 124.352 C 104.336 130.355, 104.362 131.106, 107.901 134.894 C 111.427 138.668, 116.361 139.077, 120.365 135.927 C 122.465 134.275, 123 133.001, 123 129.650 C 123 127.337, 122.272 124.406, 121.383 123.136 C 120.167 121.401, 119.925 119.625, 120.407 115.988 C 120.826 112.828, 120.658 110.907, 119.923 110.452 C 119.303 110.069, 118.161 108.236, 117.385 106.378 C 115.744 102.453, 114.426 102.077, 113.424 105.250 M 173.721 116.563 C 171.004 118.900, 170.162 121, 171.941 121 C 172.459 121, 173.160 120.550, 173.500 120 C 173.840 119.450, 174.965 119, 176 119 C 178.494 119, 179.092 117.846, 177.633 115.850 C 176.554 114.376, 176.187 114.443, 173.721 116.563 M 187 116.878 C 187 119.368, 184.797 121.085, 182.019 120.762 C 180.164 120.546, 179.550 121.236, 178.503 124.711 C 177.805 127.027, 177.519 128.850, 177.867 128.763 C 178.215 128.675, 179.400 128.911, 180.500 129.286 C 181.600 129.661, 183.850 129.608, 185.500 129.167 C 188.055 128.485, 188.574 127.783, 189 124.433 C 189.331 121.826, 190.006 120.500, 191 120.500 C 191.825 120.500, 192.636 119.546, 192.802 118.380 C 193.017 116.875, 192.438 116.082, 190.802 115.644 C 187.352 114.720, 187 114.834, 187 116.878 M 48.667 116.667 C 48.300 117.033, 48 118.126, 48 119.095 C 48 121.455, 45.089 124.248, 43.333 123.574 C 42.533 123.267, 41.693 123.783, 41.389 124.767 C 41.095 125.720, 40.406 127.331, 39.858 128.347 C 38.486 130.891, 39.372 131.455, 45.066 131.661 C 49.958 131.838, 52.544 130.530, 49.563 129.386 C 47.204 128.481, 47.685 124.528, 50.572 121.097 C 53.101 118.092, 53.115 116, 50.608 116 C 49.907 116, 49.033 116.300, 48.667 116.667 M 33.836 118.879 C 32.951 119.912, 31.645 120.952, 30.934 121.189 C 30.131 121.456, 29.906 122.314, 30.341 123.446 C 31.011 125.193, 31.126 125.196, 32.994 123.506 C 34.325 122.301, 35.850 121.920, 37.791 122.308 C 40.466 122.843, 40.610 122.702, 40.204 119.939 C 39.691 116.439, 36.394 115.891, 33.836 118.879 M 55.173 121.564 C 55.353 123.094, 56.097 124.542, 56.827 124.782 C 57.762 125.089, 58.057 124.397, 57.827 122.436 C 57.647 120.906, 56.903 119.458, 56.173 119.218 C 55.238 118.911, 54.943 119.603, 55.173 121.564 M 127.750 121.674 C 129.669 123.013, 130 124.148, 130 129.394 C 130 135.239, 129.790 135.772, 125.750 140.152 C 119.980 146.408, 115.192 147.307, 107.554 143.570 C 103.313 141.495, 101.896 140.173, 100.756 137.225 C 99.272 133.391, 99.490 125.433, 101.106 124.435 C 102.583 123.522, 102.114 121, 100.467 121 C 99.623 121, 96.686 122.139, 93.938 123.531 C 84.216 128.458, 74.292 128.718, 67.279 124.230 C 65.178 122.885, 64.964 123.015, 63.279 126.654 C 62.301 128.769, 60.938 131.095, 60.250 131.821 C 58.260 133.925, 58.731 135.055, 63.197 138.893 C 65.505 140.877, 69.593 144.627, 72.282 147.226 C 76.707 151.505, 81.740 153.979, 86.050 153.994 C 86.902 153.997, 88.061 154.461, 88.624 155.024 C 91.762 158.162, 124.786 159.711, 134.500 157.176 C 136.700 156.602, 140.506 155.629, 142.957 155.014 C 145.467 154.385, 148.524 152.697, 149.957 151.149 C 151.356 149.637, 154.826 146.724, 157.669 144.675 C 163.155 140.720, 169 134.632, 169 132.873 C 169 132.291, 168.100 130.671, 167 129.273 C 165.900 127.874, 165 125.918, 165 124.924 C 165 121.958, 163.203 121.723, 158.374 124.061 C 152.353 126.976, 142.594 126.348, 135.131 122.566 C 132.346 121.155, 129.039 120.024, 127.783 120.052 L 125.500 120.105 127.750 121.674 M 28.667 132.667 C 28.300 133.033, 28 150.289, 28 171.012 C 28 206.293, 28.117 208.796, 29.835 210.351 C 31.519 211.875, 38.360 211.991, 112.585 211.756 L 193.500 211.500 193.761 171.750 C 193.949 143.239, 193.710 132, 192.918 132 C 192.310 132, 191.577 132.900, 191.290 134 C 190.938 135.343, 189.902 136.015, 188.133 136.047 C 177.112 136.244, 174.796 136.614, 173.834 138.332 C 171.647 142.240, 166.676 146.980, 160.086 151.442 C 156.280 154.019, 152.901 156.815, 152.579 157.655 C 152.257 158.495, 152.713 160.701, 153.594 162.558 C 156.115 167.868, 155.860 172.833, 152.951 175.088 C 148.786 178.317, 140.745 182, 137.860 182 C 134.526 182, 132.002 178.785, 131.994 174.527 C 131.991 172.862, 131.528 169.841, 130.965 167.812 C 129.968 164.222, 129.859 164.153, 126.864 165.197 C 125.002 165.846, 119.283 166.071, 112.372 165.766 C 106.093 165.489, 100.734 165.622, 100.462 166.062 C 100.190 166.502, 99.916 169.120, 99.854 171.879 C 99.715 178.033, 96.776 183.544, 94.209 182.463 C 93.269 182.067, 91.375 181.535, 90 181.280 C 88.625 181.026, 86.082 180.184, 84.349 179.409 C 82.616 178.634, 80.078 178, 78.710 178 C 75.082 178, 71.953 175.022, 71.879 171.500 C 71.844 169.850, 72.143 165.702, 72.544 162.282 C 73.212 156.576, 73.076 155.857, 70.886 153.549 C 69.574 152.166, 67.825 151.027, 67 151.017 C 66.174 151.008, 62.501 148.075, 58.837 144.500 L 52.176 138 45.556 138 C 38.487 138, 32.348 136.071, 31.379 133.545 C 30.748 131.900, 29.755 131.578, 28.667 132.667 M 204.070 141.750 C 204.109 143.813, 204.527 146.400, 205 147.500 C 205.618 148.939, 205.879 147.887, 205.930 143.750 C 205.969 140.536, 205.559 138, 205 138 C 204.450 138, 204.032 139.688, 204.070 141.750 M 16.667 157.667 C 16.300 158.033, 16 158.798, 16 159.367 C 16 159.993, 16.466 159.934, 17.183 159.217 C 17.834 158.566, 18.134 157.801, 17.850 157.517 C 17.566 157.232, 17.033 157.300, 16.667 157.667 M 79.210 161.763 C 77.165 167.238, 77.024 168.177, 77.981 169.965 C 78.880 171.644, 82.080 172.522, 90 173.265 C 92.365 173.487, 92.500 173.229, 92.500 168.500 C 92.500 163.515, 92.490 163.499, 89 163.172 C 87.075 162.991, 84.825 162.272, 84 161.574 C 80.978 159.016, 80.225 159.045, 79.210 161.763 M 142.068 161.889 C 138.281 162.563, 136.800 165.505, 137.749 170.468 C 138.344 173.582, 139.981 174.473, 143.490 173.592 C 147.226 172.654, 149.290 168.897, 148.257 164.913 C 147.303 161.230, 146.892 161.029, 142.068 161.889 M 30.250 223.133 C 28.810 224.593, 28.551 236.742, 29.914 238.896 C 30.405 239.670, 31.518 240.015, 32.415 239.671 C 33.304 239.330, 49.578 239.004, 68.578 238.946 C 99.922 238.851, 103.173 238.687, 103.652 237.171 C 103.943 236.252, 104.644 234.530, 105.209 233.345 C 107.345 228.865, 103.657 227.509, 100.187 231.500 C 97.063 235.093, 93.093 234.703, 83.075 229.820 C 78.359 227.521, 74.275 225.351, 74 224.996 C 72.458 223.009, 63.398 221.758, 55.699 222.468 C 44.461 223.505, 41.225 223.533, 36 222.637 C 32.811 222.090, 31.136 222.235, 30.250 223.133 M 84.708 222.626 C 83.749 223.584, 90.606 227, 93.487 227 C 95.988 227, 99.712 224.550, 98.401 223.766 C 96.758 222.784, 85.488 221.845, 84.708 222.626 M 140.455 223.055 C 139.380 223.468, 136.759 225.665, 134.631 227.939 C 130.163 232.713, 124.657 235.422, 122.148 234.079 C 121.229 233.588, 119.625 232.244, 118.584 231.093 C 114.096 226.134, 112.222 230.802, 116.467 236.367 L 118.933 239.601 151.720 239.208 C 169.752 238.992, 186.080 239.221, 188.003 239.717 C 190.481 240.355, 191.593 241.257, 191.820 242.809 C 191.995 244.014, 191.770 245.036, 191.320 245.081 C 190.869 245.125, 175.108 245.278, 156.296 245.420 C 122.299 245.678, 119 246.004, 119 249.109 C 119 250.915, 113.433 257.924, 112 257.921 C 110.245 257.917, 102 250.715, 102 249.186 C 102 248.612, 101.293 247.436, 100.429 246.571 C 99.060 245.203, 94.348 245, 63.929 245 L 29 245 29 253.378 C 29 258.873, 29.430 262.103, 30.250 262.767 C 31.073 263.434, 59.143 263.731, 112.500 263.640 L 193.500 263.500 193.500 243 L 193.500 222.500 167.955 222.402 C 153.904 222.349, 141.529 222.642, 140.455 223.055 M 107.500 224 C 106.423 225.742, 108.019 227.229, 109.578 225.935 C 110.348 225.296, 110.731 224.374, 110.430 223.887 C 109.700 222.706, 108.265 222.762, 107.500 224 M 119.248 224.250 C 119.956 226.380, 124.663 227.525, 126.488 226.010 C 127.765 224.950, 127.828 224.508, 126.797 223.854 C 124.674 222.507, 118.772 222.816, 119.248 224.250 M 206 236.941 C 206 238.623, 206.173 240, 206.383 240 C 207.232 240, 207.671 234.915, 206.866 234.417 C 206.390 234.123, 206 235.259, 206 236.941 M 16 242 C 16 243.100, 16.450 244, 17 244 C 17.550 244, 18 243.100, 18 242 C 18 240.900, 17.550 240, 17 240 C 16.450 240, 16 240.900, 16 242 M 109.294 241.560 C 107.859 244.400, 109.189 248.500, 111.545 248.500 C 114.223 248.500, 114.573 244.930, 112.184 241.979 C 110.337 239.698, 110.241 239.684, 109.294 241.560 M 56.136 276.264 C 55.489 276.911, 55.433 277.941, 55.990 278.981 C 56.770 280.439, 58.680 280.628, 70.845 280.447 C 78.523 280.332, 85.299 279.934, 85.902 279.560 C 88.229 278.122, 86.910 276.162, 83.250 275.622 C 76.915 274.686, 57.248 275.152, 56.136 276.264 M 144.040 276.452 C 143.377 277.251, 142.990 278.713, 143.180 279.702 C 143.487 281.304, 144.937 281.531, 156.512 281.788 C 171.273 282.116, 174 281.710, 174 279.181 C 174 275.534, 172.009 275, 158.422 275 C 148.123 275, 144.982 275.317, 144.040 276.452 M 153.676 290.402 C 153.111 291.874, 153.758 293, 155.167 293 C 155.625 293, 156 292.100, 156 291 C 156 288.707, 154.477 288.315, 153.676 290.402" stroke="none" fill="black" fill-rule="evenodd"/>
</svg>