<svg xmlns="http://www.w3.org/2000/svg" width="100%" height="auto" viewBox="0 0 227 235" version="1.1">
	<path fill-opacity="0.278" d="M 77.964 11.688 C 69.160 19.077, 68.844 19.601, 69.106 26.372 C 69.373 33.293, 69.599 33.167, 59.822 31.562 L 55.144 30.795 48.491 37.546 L 41.838 44.298 42.169 51.899 C 42.544 60.517, 43.022 60.204, 33.730 57.431 L 27.959 55.710 24.385 58.253 C 14.224 65.482, 9.928 70.922, 10.469 75.872 C 10.748 78.417, 11.636 86.575, 12.443 94 C 14.972 117.256, 18.774 151.710, 21.050 172 C 22.714 186.831, 23.098 188.942, 24.262 189.662 C 25.397 190.364, 63.489 203.393, 104.302 217.041 C 128.341 225.079, 130.200 225.510, 135.914 224.367 C 140.345 223.481, 139.290 221.880, 133.967 221.414 C 131.510 221.199, 127.700 220.386, 125.500 219.608 L 121.500 218.193 121.201 211.446 C 120.835 203.192, 121.307 201.601, 123.727 202.923 C 126.108 204.224, 139.117 208.386, 141 208.449 C 142.204 208.490, 142.500 210.078, 142.500 216.500 L 142.500 224.500 145.500 224.748 C 148.742 225.015, 148.176 225.759, 181.314 177.725 C 200.503 149.910, 198.466 154.344, 199.856 137.376 C 200.527 129.194, 202.451 107.425, 204.134 89 C 205.816 70.575, 207.517 51.900, 207.914 47.500 C 208.763 38.097, 208.171 36.407, 203.775 35.690 C 201.974 35.397, 196.038 34.128, 190.584 32.871 L 180.669 30.586 174.834 36.930 C 170.702 41.422, 169 44.068, 169 45.997 C 169 55.265, 167.889 58.138, 164.607 57.352 C 162.898 56.942, 160.193 56.683, 158.595 56.775 L 155.689 56.944 156.323 41.577 C 157.071 23.454, 158.312 25.276, 142.687 21.548 L 130.874 18.730 127.261 22.115 C 119.377 29.503, 118.531 30.946, 118 37.920 C 117.444 45.220, 116.305 46.198, 110.947 43.978 L 108.052 42.779 107.776 28.201 L 107.500 13.623 99.033 11.393 C 83.863 7.396, 83.065 7.407, 77.964 11.688 M 79.077 14.776 C 74.600 18.681, 74.225 21, 78.072 21 C 79.146 21, 83.201 21.880, 87.083 22.956 L 94.141 24.912 98.602 20.800 C 103.203 16.558, 103.747 14.621, 100.417 14.336 C 99.363 14.246, 96.250 13.679, 93.500 13.077 C 90.750 12.475, 87.375 11.743, 86 11.451 C 84.091 11.045, 82.455 11.831, 79.077 14.776 M 127.835 25.645 C 125.451 27.731, 123.305 29.572, 123.067 29.736 C 121.736 30.650, 125.747 32.309, 134.263 34.368 L 143.884 36.694 148.146 32.351 C 153.252 27.149, 152.989 26.781, 142.522 24.501 C 138.134 23.544, 134.009 22.557, 133.357 22.307 C 132.704 22.056, 130.219 23.558, 127.835 25.645 M 72.954 28.750 C 73.429 32.880, 73.794 33.490, 75.750 33.421 C 76.987 33.377, 78 33.726, 78 34.195 C 78 34.665, 79.098 35.467, 80.440 35.977 C 82.399 36.722, 82.941 37.723, 83.190 41.051 C 83.477 44.886, 83.795 45.299, 87.434 46.544 C 92.813 48.385, 93 48.098, 93 38 C 93 28.537, 92.783 28.100, 87.689 27.314 C 85.935 27.044, 82.043 26.187, 79.040 25.411 C 76.037 24.635, 73.316 24, 72.994 24 C 72.672 24, 72.654 26.137, 72.954 28.750 M 51.425 38.317 C 45.450 43.727, 45.816 44.249, 57.465 46.941 L 66.970 49.137 71.984 44.818 C 74.742 42.443, 76.999 40.041, 77 39.480 C 77 38.677, 59.610 33.938, 56.847 33.988 C 56.487 33.995, 54.048 35.943, 51.425 38.317 M 177.682 38.062 C 173.731 42.463, 173.483 45, 177.005 45 C 178.142 45, 182.924 45.966, 187.632 47.147 L 196.192 49.294 200.054 44.897 C 205.780 38.375, 206.425 38.799, 183.985 34.342 C 181.976 33.942, 180.708 34.690, 177.682 38.062 M 121.398 37.405 C 120.228 40.455, 121.428 45.512, 123.250 45.206 C 124.213 45.045, 125 45.382, 125 45.956 C 125 46.530, 125.787 47.007, 126.750 47.015 C 130.860 47.049, 133.400 49.402, 133.657 53.409 C 133.950 57.988, 134.434 58.565, 138.750 59.474 L 142 60.159 142 50.141 L 142 40.123 137.250 39.461 C 134.637 39.097, 130.572 38.169, 128.215 37.400 C 122.868 35.653, 122.070 35.654, 121.398 37.405 M 101.614 50.469 C 95.579 55.877, 95.970 57.181, 104.131 58.866 C 107.632 59.589, 112.240 60.782, 114.371 61.516 L 118.245 62.851 123.123 58.288 C 130.142 51.723, 128.983 50.193, 115.602 48.359 C 113.041 48.008, 110.706 47.334, 110.414 46.860 C 109.287 45.038, 106.312 46.258, 101.614 50.469 M 46.670 48.750 C 44.978 51.585, 47.403 60.244, 50.158 61.205 C 53.293 62.298, 55 64.679, 55 67.959 C 55 70.114, 56.801 71.158, 62.750 72.452 L 66 73.159 65.942 66.829 C 65.911 63.348, 65.566 58.700, 65.176 56.500 C 64.403 52.139, 65.526 52.674, 52.250 50.350 C 50.462 50.037, 49 49.380, 49 48.891 C 49 47.809, 47.293 47.706, 46.670 48.750 M 171.725 52.750 C 171.104 58.258, 170.988 58.147, 179.211 59.946 C 186.483 61.537, 186.964 62.023, 186.985 67.782 C 186.997 71.296, 187.404 72.217, 189.250 72.917 C 193.311 74.456, 194.095 72.586, 193.784 62.099 L 193.500 52.500 189 51.692 C 186.525 51.248, 182.588 50.640, 180.250 50.342 C 177.912 50.043, 176 49.394, 176 48.899 C 176 45.131, 172.198 48.555, 171.725 52.750 M 83.431 59.699 C 84.197 69.137, 85.151 71.264, 88.412 70.798 C 90.266 70.533, 90.534 69.720, 90.800 63.542 C 90.966 59.715, 91.599 55.983, 92.208 55.249 C 93.741 53.402, 92.315 52.379, 87.110 51.594 L 82.719 50.931 83.431 59.699 M 21.888 64.173 C 13.329 71.296, 13.102 71.092, 35.834 76.690 C 38.064 77.240, 49 68.160, 49 65.759 C 49 64.579, 44.558 63.004, 35.638 61.021 L 27.776 59.273 21.888 64.173 M 153.435 64.524 C 147.753 71.175, 147.190 70.509, 161.572 74.144 L 173.298 77.107 177.619 72.303 C 179.996 69.662, 181.841 66.872, 181.720 66.105 C 181.547 65.008, 163.232 59.362, 158.827 59.048 C 158.457 59.022, 156.031 61.486, 153.435 64.524 M 95.201 67.187 L 95.500 73.437 101 75.085 C 106.274 76.666, 106.521 76.893, 107 80.617 C 107.516 84.622, 113.908 88.492, 116.208 86.192 C 118.347 84.053, 116.641 65.502, 114.303 65.470 C 113.095 65.453, 111.783 65.116, 111.387 64.720 C 110.991 64.324, 109.421 64, 107.898 64 C 106.376 64, 104.088 63.616, 102.815 63.146 C 101.542 62.677, 99.241 61.988, 97.701 61.615 L 94.903 60.938 95.201 67.187 M 133.648 63.685 C 131.890 65.444, 132.989 81.924, 134.934 82.965 C 140.238 85.803, 141 84.747, 141 74.559 C 141 69.366, 140.662 64.929, 140.250 64.697 C 138.545 63.741, 134.251 63.082, 133.648 63.685 M 72.923 78.681 C 65.752 85.612, 65.399 85.142, 81 89.449 L 90.500 92.071 96.381 86 C 99.615 82.660, 102.059 79.725, 101.811 79.477 C 101.562 79.229, 97.116 77.937, 91.930 76.607 C 86.743 75.276, 81.716 73.874, 80.758 73.490 C 79.478 72.977, 77.400 74.354, 72.923 78.681 M 14.647 80.196 C 16.346 96.109, 15.942 95.138, 21.500 96.659 C 31.289 99.338, 34.514 100.371, 35.592 101.171 C 37.611 102.671, 37.990 100.724, 37.360 92.090 C 36.546 80.939, 36.680 81.112, 26.889 78.547 C 22.275 77.338, 17.506 76.020, 16.291 75.620 C 14.155 74.915, 14.100 75.068, 14.647 80.196 M 147.629 76.524 C 147.283 77.426, 147 80.120, 147 82.511 L 147 86.858 152.750 88.460 C 162.528 91.184, 162.845 91.420, 163.190 96.201 C 163.406 99.203, 163.953 100.508, 165 100.526 C 165.825 100.541, 167.031 100.886, 167.681 101.293 C 169.691 102.552, 170.425 99.867, 170.836 89.750 C 171.210 80.568, 171.117 80, 169.254 80 C 167.358 80, 152.620 76.559, 149.674 75.429 C 148.895 75.130, 147.975 75.623, 147.629 76.524 M 55.400 84.604 C 56.346 96.657, 61.460 101.330, 61.534 90.210 C 61.561 86.208, 62.094 84.529, 63.971 82.531 C 66.535 79.802, 65.869 77.819, 62.266 77.451 C 61.295 77.351, 59.195 76.919, 57.601 76.489 L 54.701 75.708 55.400 84.604 M 186.663 77.750 C 184.538 81.254, 184.901 96.029, 187.133 96.884 C 190.567 98.200, 191.110 97.148, 191.740 87.962 C 192.328 79.379, 189.331 73.350, 186.663 77.750 M 127.138 93.539 C 121.435 99.780, 121.139 101.344, 125.577 101.802 C 127.185 101.968, 131.089 102.980, 134.254 104.052 C 137.419 105.123, 140.816 106, 141.804 106 C 142.792 106, 144.180 106.563, 144.890 107.250 C 145.930 108.259, 147.320 107.267, 152.090 102.113 C 158.823 94.837, 159.034 94.259, 155.250 93.450 C 153.738 93.126, 151.466 92.443, 150.203 91.931 C 148.940 91.419, 146.892 91, 145.653 91 C 144.414 91, 142.972 90.587, 142.450 90.082 C 138.581 86.344, 132.448 87.729, 127.138 93.539 M 66.477 90.037 C 65.518 91.589, 67.270 110.171, 68.404 110.473 C 75.785 112.436, 79.325 113.497, 83.789 115.083 C 88.280 116.678, 89.161 116.744, 89.630 115.523 C 90.654 112.853, 88.570 94.481, 87.272 94.738 C 85.770 95.036, 73.855 92.050, 72.500 91.037 C 70.803 89.768, 67.030 89.142, 66.477 90.037 M 107.734 90.599 C 107.330 91.003, 107 95.094, 107 99.691 C 107 108.813, 106.911 108.685, 114.544 110.600 L 117 111.217 117 101.667 C 117 96.415, 116.659 91.907, 116.242 91.650 C 114.651 90.666, 108.435 89.899, 107.734 90.599 M 57 107.500 C 57 115.185, 59.182 119.791, 62.313 118.718 C 65.267 117.705, 62.097 100, 58.961 100 C 57.187 100, 57 100.716, 57 107.500 M 17.448 102.276 C 17.178 102.978, 17.541 107.307, 18.253 111.896 L 19.548 120.239 26.524 122.030 C 30.361 123.014, 34.722 124.293, 36.215 124.872 C 39.926 126.310, 40.221 125.443, 39.412 115.470 C 38.687 106.533, 37.777 105, 33.196 105 C 32.132 105, 28.443 104.100, 25 103 C 17.588 100.632, 18.061 100.678, 17.448 102.276 M 184.667 101.667 C 182.788 103.546, 183.992 118.926, 186.107 120.057 C 189.157 121.690, 189.724 120.467, 190.228 111.164 C 190.665 103.093, 190.603 102.799, 188.274 101.914 C 185.403 100.822, 185.504 100.829, 184.667 101.667 M 121.667 105.667 C 121.300 106.033, 121 110.750, 121 116.148 L 121 125.962 123.750 126.546 C 128.625 127.582, 140.446 131.126, 142.273 132.100 C 144.658 133.372, 144.889 132.465, 145.222 120.500 C 145.473 111.469, 145.331 110.528, 143.761 110.791 C 142.805 110.951, 141.106 110.592, 139.985 109.992 C 138.865 109.392, 136.373 108.700, 134.449 108.454 C 132.524 108.207, 129.331 107.330, 127.353 106.503 C 123.316 104.816, 122.619 104.714, 121.667 105.667 M 162.662 105.738 C 162.373 106.205, 161.993 110.584, 161.818 115.467 L 161.500 124.346 164.476 125.147 C 168.686 126.280, 169.079 125.446, 169.301 114.899 L 169.500 105.500 166.344 105.194 C 164.608 105.025, 162.951 105.270, 162.662 105.738 M 107.866 114.731 C 107.468 117.015, 108.285 131.601, 108.843 132.172 C 109.204 132.542, 111.188 133.154, 113.250 133.533 L 117 134.223 117 125.646 C 117 118.487, 116.711 116.922, 115.250 116.174 C 112.492 114.760, 108.013 113.885, 107.866 114.731 M 67.421 116.345 C 67.137 117.085, 67.264 121.663, 67.703 126.518 L 68.500 135.347 74 136.496 C 77.025 137.127, 81.242 138.399, 83.372 139.322 C 90.055 142.218, 90.106 142.153, 89.786 131.265 L 89.500 121.530 86 120.841 C 81.873 120.030, 73.233 117.242, 70.764 115.926 C 68.462 114.699, 68.032 114.753, 67.421 116.345 M 58.472 130.750 C 59.233 139.107, 59.471 139.661, 62.500 140.166 C 64.385 140.481, 64.479 140.040, 64.142 132.500 C 63.724 123.144, 63.666 123, 60.323 123 L 57.765 123 58.472 130.750 M 183.663 124.750 C 183.412 125.162, 183.048 129.100, 182.854 133.500 C 182.502 141.461, 182.512 141.500, 185 141.500 C 188.398 141.500, 190.441 127.527, 187.372 125.282 C 185.374 123.821, 184.318 123.670, 183.663 124.750 M 20.019 129.143 C 20.030 131.539, 20.618 135.733, 21.325 138.463 L 22.612 143.426 31.542 146.177 C 42.379 149.514, 42.588 149.371, 41.409 139.389 C 40.388 130.751, 40.731 131.103, 30.500 128.187 C 26.650 127.090, 22.712 125.875, 21.750 125.489 C 20.242 124.883, 20.003 125.389, 20.019 129.143 M 161.450 130.269 C 159.611 135.061, 161.511 147.462, 164.230 148.415 C 165.732 148.942, 167.138 149.176, 167.354 148.936 C 168.392 147.786, 168.604 132.852, 167.601 131.588 C 165.889 129.433, 162.084 128.617, 161.450 130.269 M 121.667 131.667 C 121.300 132.033, 121 136.282, 121 141.108 C 121 149.198, 121.564 151.160, 124 151.549 C 125.851 151.845, 134.316 154.530, 138.430 156.126 C 144.797 158.596, 145.135 158.113, 144.790 147.040 L 144.500 137.760 133.500 134.404 C 127.450 132.558, 122.463 131.037, 122.417 131.024 C 122.371 131.011, 122.033 131.300, 121.667 131.667 M 108.422 138.344 C 106.944 142.193, 108.498 154.340, 110.500 154.588 C 111.600 154.725, 113.513 155.151, 114.750 155.535 C 116.956 156.220, 117 156.074, 117 148.130 L 117 140.027 113.378 138.513 C 108.982 136.677, 109.060 136.679, 108.422 138.344 M 68.727 140.697 C 68.165 141.685, 69.818 157.151, 70.565 157.899 C 71.269 158.602, 87.052 164.108, 89 164.330 C 90.173 164.463, 90.564 163.067, 90.792 157.925 C 91.248 147.650, 90.640 146.817, 80.344 143.615 C 75.480 142.102, 70.979 140.646, 70.342 140.379 C 69.705 140.113, 68.978 140.256, 68.727 140.697 M 59 148.941 C 59 156.286, 60.146 157.150, 63.446 152.294 C 66.519 147.772, 66.537 147.537, 64 145 C 60.324 141.324, 59 142.367, 59 148.941 M 181.631 144.702 C 180.660 145.674, 180.883 153, 181.885 153 C 182.910 153, 186 148.548, 186 147.070 C 186 145.787, 182.464 143.870, 181.631 144.702 M 22.623 153.634 C 24.148 165.675, 23.522 164.845, 33.510 168.072 C 38.455 169.669, 42.876 170.981, 43.335 170.988 C 44.434 171.004, 43.055 155.794, 41.840 154.500 C 41.324 153.950, 37.661 152.746, 33.701 151.824 C 29.740 150.901, 25.489 149.837, 24.253 149.458 C 22.085 148.793, 22.028 148.939, 22.623 153.634 M 160.526 153.321 C 159.712 156.005, 159.167 167.651, 159.808 168.659 C 160.188 169.258, 161.981 170.070, 163.790 170.463 L 167.080 171.177 166.790 162.408 C 166.503 153.737, 166.468 153.630, 163.691 152.890 C 161.828 152.394, 160.763 152.538, 160.526 153.321 M 62.992 156.509 C 62.048 157.647, 61.988 158.388, 62.775 159.175 C 64.292 160.692, 67.217 159.363, 66.824 157.336 C 66.375 155.020, 64.554 154.627, 62.992 156.509 M 121.435 156.308 C 121.144 157.066, 121.040 161.639, 121.203 166.471 L 121.500 175.255 129 177.165 C 133.125 178.216, 137.850 179.711, 139.500 180.487 C 143.680 182.454, 144.122 181.527, 143.791 171.489 L 143.500 162.661 139.500 161.452 C 137.300 160.787, 133.475 159.667, 131 158.963 C 128.525 158.260, 125.479 157.065, 124.232 156.307 C 122.306 155.138, 121.884 155.138, 121.435 156.308 M 107.707 159.690 C 106.902 162.816, 107.453 168.500, 108.561 168.500 C 110.300 168.500, 116.387 160.981, 115.399 160.054 C 113.278 158.064, 108.188 157.822, 107.707 159.690 M 53.433 167.155 C 49.183 171.612, 48.021 173.421, 48.867 174.267 C 50.224 175.624, 65.846 180.821, 66.525 180.141 C 67.476 179.191, 66.971 164.100, 65.967 163.480 C 61.130 160.490, 59.270 161.036, 53.433 167.155 M 70.389 164.429 C 70.017 165.399, 70.114 169.546, 70.606 173.644 L 71.500 181.096 81.302 184.369 C 86.692 186.169, 91.247 187.385, 91.424 187.071 C 92.249 185.603, 90.621 169.805, 89.617 169.535 C 83.330 167.849, 79.337 166.511, 78.550 165.826 C 78.027 165.372, 76.655 165, 75.500 165 C 74.345 165, 72.875 164.475, 72.233 163.833 C 71.343 162.943, 70.905 163.085, 70.389 164.429 M 112.702 169.452 L 109.059 173.810 112.780 175.301 C 117.570 177.221, 118 176.866, 118 171 C 118 164.527, 117.051 164.249, 112.702 169.452 M 25.334 172.571 C 24.624 174.422, 25.797 184.053, 26.962 185.938 C 27.445 186.719, 30.224 187.969, 33.137 188.714 C 36.050 189.460, 39.659 190.681, 41.157 191.428 C 42.655 192.176, 44.132 192.535, 44.440 192.227 C 45.663 191.004, 44.945 183.200, 43.500 182 C 42.675 181.315, 42.014 180.023, 42.032 179.128 C 42.059 177.760, 42.298 177.810, 43.532 179.441 C 44.573 180.818, 44.996 180.963, 44.985 179.941 C 44.955 177.166, 43.272 175.882, 37.908 174.543 C 34.934 173.801, 31.014 172.725, 29.198 172.152 C 26.537 171.312, 25.786 171.394, 25.334 172.571 M 159.084 174.316 C 157.790 175.610, 157.625 183.650, 158.876 184.423 C 160.120 185.192, 165.344 177.339, 164.702 175.666 C 163.991 173.813, 160.441 172.959, 159.084 174.316 M 101.725 182.691 C 95.562 190.284, 95.459 190.056, 106.706 193.710 C 118.373 197.501, 118 197.671, 118 188.563 C 118 180.837, 117.419 179.693, 113 178.715 C 111.625 178.411, 109.587 177.874, 108.470 177.522 C 106.852 177.012, 105.483 178.061, 101.725 182.691 M 48.111 186.474 L 48.111 193.948 56.262 196.523 C 60.745 197.939, 65.006 199.590, 65.731 200.191 C 66.455 200.793, 67.317 201.016, 67.646 200.687 C 68.696 199.637, 66.878 184.884, 65.658 184.553 C 59.491 182.884, 52.172 180.586, 50.764 179.876 C 49.809 179.394, 48.821 179, 48.569 179 C 48.317 179, 48.111 182.363, 48.111 186.474 M 121.403 181.392 C 121.130 182.104, 121.040 185.950, 121.203 189.937 L 121.500 197.188 131.475 200.569 C 136.961 202.429, 141.818 203.582, 142.270 203.130 C 144.166 201.234, 142.630 186.542, 140.500 186.209 C 139.400 186.037, 137.600 185.505, 136.500 185.027 C 129.589 182.019, 121.875 180.162, 121.403 181.392 M 71.917 186.414 C 71.688 186.641, 71.725 190.337, 72 194.627 C 72.494 202.329, 72.538 202.435, 75.500 203.094 C 77.150 203.461, 80.075 204.439, 82 205.267 C 83.925 206.095, 86.963 207.084, 88.750 207.466 L 92 208.159 92 200.548 C 92 195.320, 91.609 192.824, 90.750 192.574 C 83.405 190.443, 75.313 187.603, 74.550 186.889 C 73.523 185.928, 72.578 185.757, 71.917 186.414 M 96 202.572 L 96.500 210.148 104.500 212.657 C 108.900 214.037, 113.281 215.578, 114.236 216.083 C 115.191 216.587, 116.168 217, 116.407 217 C 116.647 217, 116.842 213.422, 116.842 209.048 L 116.842 201.096 111.171 199.500 C 108.052 198.622, 103.803 197.251, 101.730 196.452 C 95.533 194.065, 95.445 194.160, 96 202.572" stroke="none" fill="black" fill-rule="evenodd"/>
	<path fill-opacity="0.196" d="M 78.375 11.838 C 69.218 19.153, 68.625 20.142, 69.334 26.923 C 69.721 30.625, 69.568 33.149, 68.931 33.542 C 67.230 34.594, 69.958 36.998, 72.872 37.015 C 78.938 37.051, 78.854 38.748, 72.500 44.533 C 69.200 47.538, 66.050 49.821, 65.500 49.607 C 64.950 49.393, 60.563 48.166, 55.750 46.880 C 45.439 44.125, 45.029 43.173, 51.798 37.694 C 56.549 33.849, 59.615 33.380, 65.424 35.609 C 66.604 36.062, 66.858 35.793, 66.393 34.582 C 65.967 33.472, 65.114 33.147, 63.756 33.577 C 62.424 34, 61.979 33.842, 62.434 33.107 C 62.846 32.440, 62.332 32, 61.141 32 C 60.053 32, 58.535 31.759, 57.768 31.464 C 56.186 30.858, 49.747 35.762, 45.231 41.013 C 42.308 44.411, 42.232 44.748, 42.912 51.315 C 43.456 56.570, 43.280 58.583, 42.134 60.218 C 41.320 61.381, 41.151 62.025, 41.758 61.650 C 42.365 61.274, 43.144 61.425, 43.490 61.984 C 43.835 62.543, 44.936 63, 45.937 63 C 50.625 63, 50.149 65.629, 44.401 71.469 C 38.012 77.961, 38.499 77.898, 24.500 74.057 C 13.942 71.160, 13.755 70.852, 19.492 65.778 C 27.736 58.487, 27.637 58.529, 33.224 59.961 C 36.591 60.824, 38.498 60.902, 39.193 60.207 C 40.454 58.946, 29.900 56.557, 26.657 57.371 C 25.459 57.672, 21.446 60.763, 17.739 64.240 C 10.052 71.451, 10.060 71.418, 12.082 88.500 C 13.364 99.328, 14.353 108.520, 16.417 128.774 C 17.273 137.174, 18.200 145.049, 18.477 146.274 C 18.928 148.269, 20.037 158.316, 21.539 174 C 23.078 190.076, 22.893 189.806, 34.500 192.983 C 38.900 194.187, 44.835 196.259, 47.688 197.586 C 50.542 198.914, 53.311 200, 53.842 200 C 54.374 200, 58.114 201.146, 62.154 202.548 C 66.194 203.949, 70.175 205.288, 71 205.524 C 73.789 206.322, 85.423 210.197, 101.500 215.681 C 128.324 224.833, 134.642 226.425, 133.773 223.818 C 133.556 223.168, 130.706 221.930, 127.439 221.067 L 121.500 219.497 120.889 211.498 C 120.109 201.271, 120.020 201.329, 130.989 204.943 C 136.091 206.624, 140.909 208, 141.696 208 C 142.840 208, 143.082 209.656, 142.903 216.250 C 142.683 224.377, 142.717 224.504, 145.186 224.802 C 148.114 225.154, 150.584 221.892, 183 174.860 C 187.125 168.875, 192.228 161.529, 194.340 158.535 L 198.180 153.092 200.091 131.796 C 201.141 120.083, 202.712 102.175, 203.582 92 C 204.451 81.825, 205.602 69.225, 206.140 64 C 208.344 42.591, 208.372 38.269, 206.311 37.166 C 204.695 36.302, 204.391 36.541, 204.202 38.824 C 204.069 40.434, 202.300 43.172, 199.741 45.727 L 195.500 49.962 189 48.076 C 185.425 47.038, 180.789 45.897, 178.697 45.539 C 173.311 44.619, 173.025 42.587, 177.616 37.859 C 181.946 33.400, 182.834 33.319, 194.500 36.324 C 200.770 37.939, 204.662 36.952, 198.842 35.223 C 195.805 34.320, 187.547 32.534, 182.500 31.689 C 177.854 30.910, 169.037 42.678, 169.017 49.685 C 169.008 53.087, 168.561 57.024, 168.025 58.435 C 167.136 60.771, 167.276 61, 169.590 61 C 170.988 61, 173.026 61.479, 174.120 62.064 C 175.213 62.649, 177.321 63.273, 178.804 63.450 C 180.287 63.627, 181.838 63.823, 182.250 63.886 C 183.863 64.131, 182.804 66.132, 178.017 71.883 C 173.147 77.736, 172.962 77.847, 169.767 76.833 C 167.970 76.262, 162.900 74.900, 158.500 73.805 C 146.830 70.901, 146.979 71.158, 153.122 64.558 C 158.202 59.099, 158.648 58.848, 162.232 59.421 C 167.074 60.195, 167.188 58.445, 162.354 57.539 C 159.959 57.089, 158.458 57.259, 157.979 58.034 C 156.307 60.739, 155.804 56.208, 156.145 41.509 C 156.571 23.112, 156.635 23.211, 149.318 30.979 L 143.500 37.157 135.768 35.078 C 131.516 33.935, 127.184 33, 126.141 33 C 120.727 33, 122.360 29.006, 130.171 23.141 C 131.731 21.969, 145.287 23.823, 148.165 25.602 C 148.624 25.886, 149 25.509, 149 24.764 C 149 23.011, 132.217 18.803, 130.032 20.008 C 129.189 20.472, 126.176 23.248, 123.336 26.176 L 118.173 31.500 117.836 39.922 L 117.500 48.345 122.780 49.536 C 125.684 50.191, 128.358 51.025, 128.722 51.388 C 130.081 52.748, 118.628 63.131, 116.500 62.468 C 115.400 62.126, 110.477 60.836, 105.560 59.602 C 94.577 56.846, 94.492 56.611, 101.964 49.694 L 108 44.106 108 29.753 C 108 15.645, 107.449 13, 104.513 13 C 103.915 13, 103.352 13.978, 103.262 15.173 C 103.111 17.178, 100.587 19.874, 95.454 23.513 C 93.201 25.109, 75.004 21.511, 74.275 19.325 C 73.781 17.843, 82.463 11, 84.838 11 C 85.938 11, 89.609 11.710, 92.996 12.578 C 96.383 13.445, 99.859 13.885, 100.720 13.554 C 103.078 12.649, 102.077 12.198, 93.944 10.501 C 89.850 9.647, 85.769 8.723, 84.875 8.447 C 83.929 8.154, 81.211 9.573, 78.375 11.838 M 72.433 24.313 C 71.034 27.959, 73.437 34.436, 76.529 35.353 C 81.907 36.947, 82.514 37.561, 82.237 41.122 C 81.898 45.472, 82.600 46.303, 87.728 47.623 C 93.164 49.021, 93 49.322, 93 37.940 C 93 26.842, 93.531 27.502, 83 25.500 C 79.425 24.820, 75.716 23.933, 74.758 23.528 C 73.610 23.043, 72.818 23.310, 72.433 24.313 M 121.424 36.338 C 119.287 41.906, 121.368 46.227, 127 47.913 L 132.500 49.560 133 54.530 C 133.406 58.570, 133.874 59.539, 135.500 59.709 C 136.600 59.824, 138.369 60.049, 139.431 60.209 C 141.951 60.589, 142.772 57.666, 142.900 47.857 C 143.010 39.476, 142.857 39.263, 136.141 38.390 C 134.294 38.150, 132.044 37.574, 131.141 37.109 C 127.614 35.292, 121.996 34.846, 121.424 36.338 M 171.406 48.386 C 171.113 49.148, 171.015 51.689, 171.187 54.032 L 171.500 58.294 178.019 60.397 C 186.986 63.290, 187.050 63.352, 186.347 68.482 C 185.755 72.802, 185.803 72.892, 189.123 73.799 C 193.655 75.038, 193.655 75.038, 194.406 62.750 C 195.037 52.420, 194.984 52, 193.047 52 C 191.938 52, 187.148 50.875, 182.403 49.500 C 172.352 46.587, 172.105 46.562, 171.406 48.386 M 46 53.362 C 46 58.808, 46.117 59.049, 49.938 61.461 C 53.192 63.515, 53.930 64.585, 54.188 67.619 C 54.485 71.111, 54.745 71.355, 59.500 72.601 C 67.900 74.803, 67.789 75.009, 66.353 59.805 L 65.721 53.110 58.897 51.037 C 55.144 49.897, 50.707 48.691, 49.036 48.357 L 46 47.750 46 53.362 M 83 59.183 C 83 69.574, 83.657 70.999, 88.450 71.002 L 91.500 71.004 91.154 64.865 C 90.951 61.254, 91.315 57.781, 92.037 56.431 C 93.644 53.428, 92.639 51.003, 89.781 50.986 C 88.527 50.979, 86.487 50.701, 85.250 50.370 C 83.033 49.776, 83 49.906, 83 59.183 M 94.896 61.231 C 94.793 62.483, 94.828 71.771, 94.942 73.275 C 95.010 74.181, 99.598 76.065, 102.542 76.396 C 106.115 76.797, 107.237 78.066, 106.643 81.034 C 105.998 84.262, 106.916 85.176, 112.415 86.775 C 117.900 88.371, 118.118 87.991, 117.918 77.161 C 117.715 66.092, 117.452 65, 114.998 65 C 114.015 65, 110.351 64.147, 106.855 63.105 C 96.717 60.082, 95.012 59.815, 94.896 61.231 M 133.216 72.680 L 133.500 83.360 136.500 84.175 C 141.664 85.578, 142 84.959, 142 74.031 C 142 64.063, 141.985 64, 139.559 64 C 138.216 64, 136.840 63.550, 136.500 63 C 134.047 59.030, 132.940 62.292, 133.216 72.680 M 147.609 74.127 C 145.133 86.089, 146.097 88.169, 154.920 89.905 C 161.283 91.156, 161.478 91.373, 162.220 98 C 162.423 99.810, 163.190 100.596, 165 100.846 C 166.375 101.036, 168.022 101.620, 168.661 102.144 C 170.514 103.665, 170.961 101.945, 171.653 90.645 L 172.297 80.113 169.399 79.442 C 156.100 76.363, 150.325 74.594, 149.300 73.286 C 148.263 71.962, 148.033 72.076, 147.609 74.127 M 72.454 78.680 C 65.634 85.722, 65.623 85.695, 76.536 88.611 C 91.970 92.734, 90.196 92.924, 96.176 86.500 C 103.138 79.019, 103.194 79.132, 91 75.895 C 77.496 72.311, 78.815 72.113, 72.454 78.680 M 13.706 74.682 C 12.610 76.487, 15.509 95.288, 17.005 96.082 C 17.827 96.518, 22.325 97.850, 27 99.042 C 31.675 100.234, 36.022 101.634, 36.661 102.153 C 38.812 103.902, 39.086 101.217, 37.835 90.682 L 36.600 80.285 27.050 77.757 C 21.798 76.367, 16.758 74.922, 15.851 74.546 C 14.944 74.171, 13.979 74.232, 13.706 74.682 M 54.897 75.633 C 54.607 78.056, 55.180 92.734, 55.623 94.250 C 55.960 95.403, 57.136 96, 59.067 96 C 61.935 96, 62 95.884, 62 90.805 C 62 86.557, 62.480 85.109, 64.630 82.864 C 67.848 79.505, 67.231 77.403, 62.827 76.723 C 60.997 76.440, 58.487 75.884, 57.250 75.488 C 56.013 75.091, 54.953 75.157, 54.897 75.633 M 185.607 80.246 C 183.821 94.966, 183.906 95.900, 187.186 97.596 C 191.290 99.718, 191.675 99.010, 192.477 87.862 C 193.200 77.799, 193.159 77.673, 188.812 76.635 C 186.266 76.027, 186.096 76.218, 185.607 80.246 M 127.588 92.911 C 121.309 99.256, 120.870 101.397, 125.671 102.256 C 128.031 102.679, 136.563 104.934, 145.500 107.497 C 147.562 108.088, 158 97.336, 158 94.621 C 158 93.914, 153.329 92.247, 146.750 90.605 C 140.563 89.062, 135.039 87.615, 134.476 87.391 C 133.914 87.168, 130.814 89.651, 127.588 92.911 M 66.378 89.238 C 65.889 89.932, 65.636 94.911, 65.815 100.303 C 66.177 111.234, 65.607 110.444, 75 113.031 C 83.070 115.254, 86.479 116.402, 87.738 117.321 C 89.691 118.747, 90.100 116.290, 89.787 105.003 L 89.500 94.640 82 92.919 C 72.485 90.736, 69.775 89.925, 68.383 88.843 C 67.712 88.323, 66.910 88.480, 66.378 89.238 M 107.667 89.667 C 107.300 90.033, 107 94.665, 107 99.960 L 107 109.587 111.250 110.729 C 116.657 112.182, 116.627 112.227, 117.403 101.354 L 118.056 92.207 113.350 90.604 C 107.851 88.730, 108.497 88.836, 107.667 89.667 M 56.540 108.250 C 57.302 118.447, 57.682 119.323, 61.135 118.835 C 64.471 118.363, 64.233 103.624, 60.843 100.750 C 56.462 97.036, 55.791 98.206, 56.540 108.250 M 16.493 101.181 C 16.219 101.906, 16.581 106.534, 17.297 111.465 L 18.598 120.429 28.049 123.193 C 40.813 126.925, 40.020 127.223, 39.882 118.750 C 39.708 108.114, 38.977 105.563, 35.994 105.179 C 33.903 104.910, 28.704 103.470, 18.745 100.403 C 17.778 100.105, 16.767 100.454, 16.493 101.181 M 184.569 100.917 C 184.381 101.238, 183.907 105.603, 183.517 110.619 L 182.808 119.738 185.882 120.809 C 189.788 122.171, 189.810 122.124, 190.608 110.778 L 191.276 101.268 188.094 100.801 C 186.344 100.544, 184.758 100.596, 184.569 100.917 M 120.914 104.633 C 120.438 109.426, 120.983 125.367, 121.644 125.972 C 122.335 126.604, 137.653 131.500, 144 133.118 C 145.258 133.438, 145.545 131.621, 145.781 121.868 L 146.061 110.236 143.281 109.736 C 140.909 109.310, 131.126 106.715, 123.250 104.422 C 122.013 104.061, 120.961 104.157, 120.914 104.633 M 162.160 104.780 C 160.236 105.421, 160.578 125, 162.514 125 C 163.346 125, 164.910 125.551, 165.989 126.225 C 168.972 128.088, 169.690 126.456, 170.297 116.435 C 170.950 105.650, 168.798 102.567, 162.160 104.780 M 107.667 113.667 C 107.300 114.033, 107 118.293, 107 123.131 C 107 132.755, 107.456 133.522, 113.557 134.182 L 116.500 134.500 116.500 125.157 L 116.500 115.814 112.500 114.422 C 110.300 113.656, 108.463 113.023, 108.417 113.015 C 108.371 113.007, 108.033 113.300, 107.667 113.667 M 66.665 115.750 C 65.253 118.089, 68.452 135.242, 70.438 135.979 C 77.240 138.501, 90.154 142.179, 90.609 141.725 C 90.904 141.429, 90.827 136.420, 90.437 130.594 C 89.753 120.388, 89.642 120, 87.411 120 C 86.137 120, 84.060 119.595, 82.797 119.099 C 74.688 115.919, 67.468 114.420, 66.665 115.750 M 58 129.403 C 58 138.013, 59.162 141, 62.512 141 C 66.705 141, 65.271 124.709, 60.879 122.437 L 58 120.949 58 129.403 M 183.418 124.133 C 183.033 124.756, 182.360 130.044, 181.923 135.883 C 181.486 141.722, 180.816 148.188, 180.433 150.250 C 179.533 155.107, 181.596 155.314, 184.750 150.681 C 186.941 147.463, 187.760 143.880, 186.250 144.118 C 184.326 144.422, 182.935 143.914, 183.442 143.094 C 183.750 142.596, 184.881 142.418, 185.956 142.699 C 188.200 143.286, 188.618 142.002, 189.340 132.300 C 189.762 126.627, 189.600 125.968, 187.436 124.550 C 184.610 122.698, 184.323 122.668, 183.418 124.133 M 19.630 125.790 C 18.982 126.839, 20.918 142.309, 21.806 143.180 C 22.917 144.269, 41.359 149.974, 41.929 149.405 C 43.709 147.624, 41.061 128.226, 39.195 129.380 C 38.750 129.654, 34.610 128.782, 29.994 127.440 C 20.657 124.725, 20.321 124.672, 19.630 125.790 M 161.038 130.401 C 160.588 131.583, 160.284 136.067, 160.360 140.366 L 160.500 148.182 164.171 149.446 C 168.676 150.997, 168.966 150.337, 168.986 138.495 L 169 130.489 165.427 129.371 C 162.166 128.350, 161.783 128.440, 161.038 130.401 M 121.346 131.249 C 120.205 133.095, 120.795 150.048, 122.053 151.564 C 122.708 152.354, 124.282 153, 125.550 153 C 126.818 153, 131.522 154.298, 136.004 155.884 C 145.335 159.186, 144.673 159.768, 145.357 147.646 C 145.911 137.842, 145.563 136.008, 143.143 135.983 C 142.239 135.973, 137.109 134.671, 131.743 133.090 C 125.409 131.224, 121.761 130.578, 121.346 131.249 M 107.491 137.015 C 106.703 138.290, 107.094 150.410, 108.064 154.750 C 108.463 156.537, 108.387 158, 107.895 158 C 106.714 158, 106.733 169.717, 107.915 170.447 C 108.418 170.758, 109.777 169.479, 110.935 167.605 C 112.093 165.732, 113.706 163.943, 114.520 163.631 C 117.094 162.643, 116.127 160.154, 112.500 158.433 C 109.007 156.776, 107.858 155, 110.277 155 C 110.980 155, 112.559 155.703, 113.785 156.562 C 116.787 158.665, 117.162 157.481, 116.793 147.071 L 116.500 138.808 112.500 137.419 C 107.683 135.746, 108.247 135.792, 107.491 137.015 M 68.379 147.997 C 69.289 158.905, 69.101 158.686, 80.851 162.499 C 92.260 166.201, 91.877 166.308, 91.513 159.500 C 91.365 156.750, 91.190 152.602, 91.122 150.282 L 91 146.064 82.750 143.553 C 78.213 142.171, 72.967 140.736, 71.093 140.364 L 67.686 139.687 68.379 147.997 M 58.876 143.336 C 58.413 147.677, 59.425 155.763, 60.595 157.079 C 62.438 159.150, 62.367 159.914, 60.250 160.782 C 57.612 161.864, 47.745 172.734, 48.189 174.068 C 48.636 175.408, 64.943 181.165, 66.605 180.569 C 67.871 180.116, 67.283 165.171, 65.933 163.466 C 65.483 162.898, 65.532 161.773, 66.042 160.966 C 68.053 157.787, 67.205 154.732, 64.500 155.411 C 61.438 156.179, 61.399 155.732, 64.191 151.955 C 65.950 149.576, 66.197 148.463, 65.441 146.317 C 64.450 143.500, 59.117 141.079, 58.876 143.336 M 22.558 156.250 C 23.282 164.845, 24.139 166.986, 26.872 167.021 C 27.768 167.033, 31.578 168.128, 35.339 169.456 C 44.338 172.631, 44.685 172.425, 44.167 164.221 C 43.523 154.020, 43.550 154.052, 32.920 150.858 C 27.739 149.301, 23.132 148.021, 22.681 148.013 C 22.231 148.006, 22.175 151.713, 22.558 156.250 M 159.552 153.250 C 158.632 156.230, 158.032 184.902, 158.878 185.425 C 160.977 186.722, 165.836 176.610, 166.925 168.678 C 168.769 155.257, 168.526 153.355, 164.875 152.625 C 160.544 151.759, 159.992 151.824, 159.552 153.250 M 120.352 156.524 C 119.529 158.670, 120.991 174.876, 122.068 175.542 C 123.786 176.604, 143.194 182.139, 143.639 181.695 C 143.886 181.447, 144.350 176.970, 144.670 171.745 L 145.253 162.245 137.876 160.046 C 133.819 158.836, 128.507 157.206, 126.072 156.423 C 120.668 154.686, 121.060 154.680, 120.352 156.524 M 70.698 163.636 C 69.425 164.909, 69.907 180.684, 71.250 181.712 C 71.938 182.239, 75.650 183.479, 79.500 184.469 C 83.350 185.458, 86.927 186.657, 87.450 187.134 C 90.945 190.321, 92.080 188.171, 91.788 178.921 L 91.500 169.842 86 167.831 C 82.975 166.725, 79.150 165.462, 77.500 165.025 C 75.850 164.588, 73.801 163.940, 72.948 163.584 C 72.094 163.229, 71.082 163.252, 70.698 163.636 M 112.597 168.697 C 108.544 173.365, 108.539 173.277, 112.992 175.953 C 115.466 177.441, 113.137 178.490, 109.994 177.304 C 107.165 176.236, 106.876 176.420, 101.532 182.679 C 98.490 186.244, 96 189.514, 96 189.946 C 96 191.051, 115.835 197.220, 117.024 196.485 C 118.356 195.662, 118.263 182.360, 116.907 179.827 C 116.117 178.350, 116.117 177.483, 116.907 176.693 C 118.131 175.469, 118.418 165.374, 117.250 164.660 C 116.838 164.407, 114.743 166.224, 112.597 168.697 M 24.736 170.682 C 24.160 171.694, 25.693 186.027, 26.460 186.794 C 27.025 187.359, 42.915 192.880, 44.200 192.958 C 44.585 192.981, 45.035 190.520, 45.200 187.488 C 45.611 179.931, 47.431 180.054, 47.796 187.665 C 48.145 194.961, 48.335 195.154, 58 198 C 62.125 199.215, 66.063 200.667, 66.750 201.227 C 67.729 202.024, 67.978 200.755, 67.900 195.372 C 67.774 186.639, 66.912 183.592, 64.456 183.192 C 63.380 183.016, 59.575 181.920, 56 180.756 C 52.425 179.592, 48.749 178.690, 47.831 178.752 C 46.913 178.813, 45.928 178.255, 45.643 177.511 C 45.357 176.767, 41.267 174.982, 36.552 173.544 C 31.838 172.106, 27.356 170.690, 26.591 170.397 C 25.827 170.104, 24.993 170.232, 24.736 170.682 M 121.355 180.041 C 120.885 180.509, 120.725 184.798, 121 189.571 L 121.500 198.251 131 201.222 C 144.600 205.474, 143.500 206.011, 143.500 195.125 L 143.500 185.749 136.111 183.830 C 132.047 182.774, 127.257 181.298, 125.466 180.550 C 123.674 179.802, 121.826 179.573, 121.355 180.041 M 71.667 186.667 C 70.321 188.012, 70.950 200.713, 72.422 201.936 C 73.784 203.065, 89.626 209, 91.281 209 C 92.884 209, 91.624 191.707, 90 191.427 C 89.175 191.285, 84.999 190.006, 80.719 188.584 C 71.877 185.648, 72.544 185.789, 71.667 186.667 M 95.349 198.527 C 95.707 201.141, 96 204.910, 96 206.903 L 96 210.527 106.537 214.165 L 117.075 217.803 116.787 209.177 L 116.500 200.550 108.500 197.807 C 104.100 196.298, 99.194 194.773, 97.599 194.419 L 94.697 193.775 95.349 198.527" stroke="none" fill="black" fill-rule="evenodd"/>
	<path fill-opacity="0.385" d="M 101.655 18.400 C 99.541 20.754, 96.501 23.454, 94.901 24.399 C 92.688 25.707, 92.195 26.522, 92.839 27.809 C 93.743 29.615, 93.401 48.986, 92.218 63 L 91.500 71.500 88.014 71.214 C 83.131 70.814, 83.243 71.171, 82.613 54.072 C 82.301 45.587, 81.624 38.224, 81.110 37.710 C 79.994 36.594, 78 37.624, 78 39.316 C 78 39.975, 75.371 42.761, 72.158 45.507 L 66.316 50.500 66.408 66.746 C 66.459 75.682, 66.740 82.994, 67.034 82.996 C 67.328 82.998, 69.945 80.593, 72.851 77.651 L 78.133 72.302 87.177 74.651 C 97.382 77.302, 99 77.470, 99 75.883 C 99 75.269, 98.139 74.992, 97.086 75.267 C 94.775 75.872, 94.033 73.724, 94.014 66.372 C 93.995 59.209, 96.027 55.090, 102.502 49.172 L 108.096 44.060 107.798 29.362 C 107.463 12.820, 107.157 12.274, 101.655 18.400 M 70.630 18.789 C 69.204 21.098, 69.742 35.435, 71.293 36.413 C 73.299 37.678, 74.792 36.392, 73.183 34.783 C 71.728 33.328, 71.612 23.788, 73.033 22.367 C 73.601 21.799, 73.778 20.584, 73.426 19.667 C 72.746 17.895, 71.437 17.484, 70.630 18.789 M 153.329 26.750 C 152.994 27.712, 150.549 30.750, 147.894 33.500 L 143.067 38.500 142.784 50 C 142.609 57.102, 142.110 61.434, 141.481 61.327 C 140.921 61.232, 139.234 60.846, 137.731 60.469 C 136.019 60.039, 135 60.186, 135 60.863 C 135 61.457, 136.463 62.321, 138.250 62.783 L 141.500 63.623 141.788 73.490 C 142.163 86.303, 142.174 86.279, 136.719 84.420 L 132.341 82.928 132.421 66.306 C 132.497 50.349, 131.455 44.840, 129.516 50.948 C 129.157 52.081, 126.358 55.593, 123.296 58.754 L 117.729 64.500 117.614 76.500 C 117.518 86.641, 117.268 88.438, 116 88.101 C 111.909 87.012, 109 86.873, 109 87.768 C 109 88.315, 111.061 89.282, 113.581 89.916 L 118.161 91.069 117.534 101.785 C 117.188 107.678, 116.908 113.175, 116.910 114 C 116.973 138.262, 116.943 136.333, 117.441 147.500 C 117.643 152.051, 117.322 156.498, 116.695 157.815 C 115.912 159.458, 115.901 160.619, 116.655 161.815 C 118.328 164.467, 119.475 163.802, 119.789 160 C 120.286 153.968, 120.300 153.962, 127.853 156.517 C 136.518 159.449, 142 160.522, 142 159.288 C 142 158.322, 126.701 152.989, 123.950 152.996 C 120.716 153.004, 120 150.732, 120 140.467 C 120 127.411, 117.795 128.049, 139.186 134.916 C 141.151 135.546, 142.012 135.412, 142.394 134.415 C 142.930 133.018, 139.641 131.771, 128 128.954 C 119.937 127.004, 119.999 127.108, 120.006 115.628 C 120.013 102.561, 120.910 99.742, 127.341 92.570 L 132.658 86.640 138.645 88.320 C 141.937 89.244, 145.054 90, 145.570 90 C 146.087 90, 146.481 86.754, 146.446 82.786 C 146.367 73.768, 147.429 70.656, 152.686 64.506 C 155.575 61.126, 156.630 59.135, 156.102 58.058 C 155.683 57.201, 155.616 49.975, 155.955 42 C 156.293 34.025, 156.393 26.938, 156.178 26.250 C 155.611 24.440, 154.036 24.717, 153.329 26.750 M 118.630 30.789 C 117.717 32.267, 117.686 47.087, 118.595 47.915 C 120.104 49.290, 126.906 49.961, 127.621 48.804 C 128.003 48.187, 127.696 47.947, 126.889 48.233 C 121.431 50.168, 116.800 37.900, 121.512 33.990 C 122.663 33.035, 122.753 32.407, 121.890 31.367 C 120.617 29.833, 119.359 29.610, 118.630 30.789 M 125.500 34.171 C 129.469 36.737, 140 38.891, 140 37.138 C 140 36.390, 134.514 34.901, 126 33.337 C 123.627 32.902, 123.602 32.944, 125.500 34.171 M 204.171 39.705 C 203.590 41.242, 201.360 44.373, 199.215 46.662 C 194.939 51.225, 195.092 50.333, 193.409 80.500 C 193.164 84.900, 192.758 89.070, 192.507 89.766 C 192.256 90.462, 191.767 96.907, 191.419 104.088 C 190.663 119.736, 190.031 122.595, 187.408 122.246 C 185.715 122.020, 185.751 122.173, 187.728 123.603 C 191.664 126.451, 189.352 144.802, 184.181 151.750 C 180.672 156.466, 179.609 155.908, 180.371 149.750 C 180.728 146.863, 181.206 141.350, 181.433 137.500 C 183.443 103.340, 184.068 98.705, 186.532 99.651 C 187.339 99.960, 188 99.768, 188 99.224 C 188 98.679, 187.033 97.980, 185.850 97.671 C 183.819 97.140, 183.737 96.709, 184.360 89.804 C 186.603 64.966, 186.160 57.188, 182.979 65.556 C 182.444 66.962, 179.803 70.450, 177.111 73.306 L 172.215 78.500 171.645 90.500 C 170.699 110.444, 170.320 117.610, 169.085 139 C 168.434 150.275, 167.872 162.317, 167.838 165.760 C 167.803 169.204, 167.376 172.268, 166.888 172.569 C 166.399 172.871, 166 174.030, 166 175.146 C 166 177.776, 160.095 186, 158.205 186 C 157.131 186, 156.903 185.237, 157.332 183.088 C 158.071 179.396, 159.017 165.560, 159.457 152 C 160.441 121.743, 161.349 104.395, 161.994 103.500 C 163.301 101.689, 161.646 92.500, 160.014 92.500 C 159.196 92.500, 158.356 93.391, 158.146 94.480 C 157.936 95.570, 155.242 99.334, 152.159 102.846 C 147.721 107.901, 146.521 109.989, 146.402 112.866 C 146.319 114.865, 146.179 125.682, 146.089 136.904 C 146 148.127, 145.721 157.643, 145.469 158.051 C 145.019 158.779, 143.861 194.793, 143.654 214.500 C 143.503 228.898, 144.893 228.726, 156 212.968 C 160.675 206.336, 166.326 198.342, 168.558 195.205 C 174.580 186.740, 186.432 169.610, 192.658 160.374 L 198.135 152.249 199.530 135.374 C 202.451 100.047, 205.059 71.134, 206.194 61.500 C 208.407 42.716, 207.348 31.298, 204.171 39.705 M 170.813 42.673 C 168.425 45.341, 167.853 60.348, 170.123 60.785 C 171.462 61.043, 171.637 60.276, 171.223 55.969 C 170.949 53.122, 171.289 49.154, 171.987 47.039 C 173.582 42.207, 173.039 40.188, 170.813 42.673 M 43.432 43.658 C 42.707 43.921, 42.624 46.210, 43.172 50.765 C 43.617 54.461, 43.750 58.212, 43.468 59.101 C 42.987 60.615, 45.538 63.795, 46.478 62.855 C 46.715 62.619, 46.504 59.562, 46.009 56.063 C 45.514 52.564, 45.355 48.473, 45.656 46.972 C 46.209 44.203, 45.371 42.954, 43.432 43.658 M 175.167 46.002 C 175.771 47.812, 191.027 51.373, 192.380 50.020 C 192.941 49.459, 193.197 49, 192.950 48.999 C 191.808 48.997, 178.012 45.942, 176.467 45.349 C 175.277 44.892, 174.866 45.099, 175.167 46.002 M 48 46.711 C 48 47.593, 57.522 50.151, 62.358 50.569 C 68.631 51.111, 60.022 47.787, 51.747 46.472 C 49.686 46.145, 48 46.252, 48 46.711 M 98.550 60.081 C 98.918 60.676, 100.294 60.892, 101.609 60.562 C 102.924 60.232, 104 60.367, 104 60.862 C 104 61.787, 111.505 64, 114.643 64 C 117.777 64, 114.696 62.391, 108.265 60.669 C 101.026 58.731, 97.587 58.523, 98.550 60.081 M 47.565 68.043 C 45.450 70.816, 42.150 74.379, 40.232 75.961 L 36.744 78.836 37.810 90.168 C 38.397 96.401, 38.868 102.400, 38.857 103.500 C 38.847 104.600, 39.335 110.138, 39.943 115.808 C 40.550 121.477, 40.808 126.501, 40.516 126.974 C 40.224 127.446, 40.408 128.943, 40.924 130.300 C 41.440 131.658, 42.087 137.208, 42.361 142.634 C 42.636 148.060, 43.080 153.175, 43.350 154 C 44.193 156.583, 45.117 171.002, 44.503 171.995 C 44.159 172.552, 41.773 172.154, 38.709 171.029 C 35.844 169.978, 31.896 168.831, 29.935 168.482 C 24.395 167.495, 23.843 166.756, 22.385 158.372 C 20.467 147.344, 21.254 145.561, 26.800 148.366 C 30.286 150.129, 39.933 152.401, 40.696 151.638 C 41.498 150.836, 33.661 147.580, 27.247 146.051 C 20.812 144.517, 20.870 144.609, 19.516 133.716 C 18.190 123.047, 17.840 123.325, 28.637 126.456 C 33.430 127.845, 37.609 128.724, 37.924 128.409 C 39.063 127.270, 34.962 125.325, 27.502 123.468 C 19.569 121.492, 17.551 120.116, 17.425 116.597 C 17.384 115.444, 17.011 111.462, 16.596 107.749 C 15.664 99.417, 16.195 99.080, 25.763 101.929 C 33.499 104.233, 38.066 104.666, 36.330 102.930 C 35.741 102.341, 31.066 100.767, 25.940 99.432 C 16.080 96.863, 15.040 96.131, 15.015 91.750 C 15.007 90.237, 14.624 89, 14.165 89 C 13.706 89, 13.409 84.487, 13.505 78.970 C 13.625 72.105, 13.336 69.056, 12.590 69.308 C 11.144 69.795, 11.248 80.656, 12.831 94.500 C 13.523 100.550, 14.745 111.350, 15.548 118.500 C 16.350 125.650, 17.463 135.100, 18.020 139.500 C 19.119 148.176, 21.523 170.430, 22.530 181.239 C 22.875 184.946, 23.684 188.306, 24.328 188.706 C 26.431 190.012, 38.454 193.991, 40.309 193.996 C 43.739 194.004, 41.038 192.274, 34.955 190.567 C 26.609 188.226, 25.456 186.820, 24.635 177.982 C 23.930 170.399, 24.744 167.776, 27.208 169.687 C 27.918 170.239, 30.750 171.277, 33.500 171.994 C 36.250 172.712, 40.864 174.430, 43.753 175.813 C 48.824 178.240, 51.625 178.225, 49.183 175.783 C 48.533 175.132, 48 174.105, 48 173.500 C 48 171.783, 57.990 161, 59.580 161 C 61.212 161, 61.469 158.869, 60.014 157.414 C 59.471 156.871, 58.751 150.369, 58.414 142.964 C 57.642 126.014, 57.328 120.850, 56.011 103.500 C 55.427 95.800, 54.747 83.962, 54.499 77.194 C 53.896 60.684, 53.537 60.212, 47.565 68.043 M 17 73.852 C 17 74.919, 29.865 78.468, 30.702 77.632 C 31.040 77.294, 31.900 77.502, 32.614 78.095 C 33.328 78.687, 34.477 78.823, 35.166 78.397 C 36.553 77.540, 34.378 76.736, 24.500 74.456 C 17.290 72.791, 17 72.768, 17 73.852 M 151 74 C 151 74.550, 152.238 75.069, 153.750 75.152 C 157.020 75.333, 158.010 75.509, 160 76.259 C 163.160 77.449, 168.335 79, 169.149 79 C 171.433 79, 169.571 77.190, 166.250 76.181 C 155.596 72.944, 151 72.286, 151 74 M 102.600 79.806 C 101.783 81.386, 98.363 85.226, 94.999 88.340 C 91.636 91.454, 89.097 94.347, 89.357 94.769 C 89.824 95.524, 90.955 130.244, 91.597 163.500 C 91.778 172.850, 92.168 182.160, 92.465 184.190 C 92.769 186.273, 92.550 188.160, 91.961 188.524 C 91.388 188.878, 91.145 189.918, 91.421 190.834 C 92.559 194.610, 92.960 208.207, 91.986 210.026 C 91.116 211.653, 91.354 212.051, 93.525 212.596 C 96.692 213.390, 97.698 212.546, 96.009 210.511 C 95.089 209.402, 94.866 206.238, 95.208 199.135 L 95.681 189.295 101 182.898 C 103.926 179.379, 106.979 176.014, 107.786 175.421 C 108.886 174.612, 108.996 173.860, 108.226 172.421 C 106.919 169.977, 106.749 137.337, 108.031 134.942 C 108.579 133.918, 108.604 133.021, 108.089 132.831 C 106.731 132.329, 105.665 90.494, 106.950 88.094 C 107.650 86.785, 107.668 85.913, 107.003 85.502 C 106.451 85.161, 106 83.360, 106 81.500 C 106 77.022, 104.442 76.245, 102.600 79.806 M 63.006 84.989 C 62.370 86.177, 61.996 89.253, 62.175 91.825 C 62.467 96.028, 62.273 96.532, 60.250 96.820 C 57.446 97.218, 57.268 99, 60.032 99 C 63.905 99, 66.054 117.751, 62.415 119.787 C 60.875 120.649, 60.914 120.914, 62.865 122.865 C 65.603 125.603, 66.141 141, 63.500 141 C 61.368 141, 61.644 142.297, 64.103 143.832 C 65.908 144.960, 66.113 145.758, 65.555 149.484 C 65.156 152.145, 65.311 154.074, 65.957 154.473 C 66.536 154.831, 66.925 157.009, 66.822 159.312 C 66.719 161.615, 67.005 170.925, 67.459 180 C 67.912 189.075, 68.331 198.294, 68.391 200.487 C 68.467 203.273, 68.978 204.565, 70.087 204.778 C 71.460 205.043, 71.612 204.006, 71.212 197.107 C 70.605 186.608, 71.393 183.140, 73.876 185.388 C 74.856 186.274, 76.196 187, 76.854 187 C 77.512 187, 80.611 187.900, 83.740 189 C 90.489 191.372, 90 191.318, 90 189.688 C 90 188.908, 86.247 187.204, 80.750 185.486 C 75.662 183.896, 71.275 182.424, 71 182.215 C 70.232 181.631, 69.202 163.594, 69.892 162.802 C 70.226 162.418, 74.521 163.422, 79.436 165.033 C 87.870 167.798, 90.565 168.110, 88.433 166.076 C 87.920 165.586, 83.450 163.843, 78.500 162.201 C 68.217 158.792, 68.326 158.959, 68.118 146.250 C 67.983 137.949, 67.455 138.211, 77.712 141.487 C 86.230 144.208, 88 144.478, 88 143.062 C 88 142.546, 84.063 140.916, 79.250 139.440 C 66.639 135.572, 67.598 136.652, 66.789 125.406 C 65.904 113.121, 65.963 113.062, 75.914 116.351 C 80.323 117.808, 84.958 118.986, 86.215 118.968 C 90.357 118.911, 85.743 116.484, 76.748 113.989 C 65.539 110.881, 65.926 111.482, 65.570 96.617 C 65.249 83.216, 64.871 81.503, 63.006 84.989 M 68 87.400 C 68 88.989, 83.088 93.261, 84.350 92.029 C 84.817 91.573, 82.695 90.472, 79.632 89.581 C 72.076 87.385, 68 86.620, 68 87.400 M 124.232 103.195 C 124.729 104.687, 129.651 106.071, 131.683 105.291 C 132.695 104.903, 131.921 104.266, 129.349 103.370 C 124.578 101.709, 123.727 101.680, 124.232 103.195 M 134 105.842 C 134 106.658, 140.575 109, 142.866 109 C 145.713 109, 143.562 107.127, 139.557 106.119 C 134.232 104.778, 134 104.766, 134 105.842 M 117.924 169.750 C 117.937 172.363, 117.988 179.369, 118.038 185.320 C 118.095 192.135, 117.702 196.654, 116.978 197.527 C 116.345 198.289, 116.148 199.431, 116.540 200.065 C 117.506 201.628, 117.511 216.365, 116.546 217.926 C 115.498 219.622, 116.586 220.381, 122.865 222.332 C 129.079 224.264, 132.421 224.490, 131.446 222.913 C 131.077 222.315, 129.926 222.048, 128.888 222.319 C 127.851 222.590, 126.750 222.404, 126.442 221.906 C 126.134 221.408, 124.832 221, 123.548 221 C 122.264 221, 120.941 220.288, 120.607 219.418 C 119.491 216.511, 119.949 202.451, 121.200 201.200 C 122.133 200.267, 122.133 199.733, 121.200 198.800 C 118.036 195.636, 120.289 176.335, 123.510 179.009 C 125.345 180.531, 141.004 184.802, 141.545 183.927 C 142.308 182.692, 127.556 177, 123.592 177 C 121.134 177, 119.629 173.943, 119.863 169.427 C 120.002 166.746, 119.660 165, 118.997 165 C 118.353 165, 117.911 166.960, 117.924 169.750 M 53.500 178.757 C 58.201 181.385, 63.395 183.005, 64.281 182.119 C 64.725 181.675, 62.554 180.341, 59.455 179.156 C 52.688 176.566, 49.158 176.330, 53.500 178.757 M 45.914 186.250 C 45.866 186.387, 45.698 188.655, 45.539 191.289 C 45.256 195.990, 48.216 199, 53.122 199 C 55.169 199, 53.764 197.113, 51 196.150 C 48.259 195.194, 48 194.711, 48 190.552 C 48 187.097, 46.611 184.232, 45.914 186.250 M 98.768 193.168 C 100.377 194.777, 107.160 197.019, 108.296 196.317 C 108.806 196.002, 109.511 196.191, 109.862 196.737 C 110.769 198.149, 115 199.333, 115 198.174 C 115 197.646, 111.463 196.041, 107.140 194.607 C 98.362 191.695, 97.074 191.474, 98.768 193.168 M 123 200.956 C 123 201.824, 137.676 207, 140.135 207 C 143.231 207, 139.499 204.414, 133.453 202.369 C 125.976 199.840, 123 199.438, 123 200.956 M 73.553 204.915 C 73.242 205.418, 76.253 206.827, 80.244 208.047 C 84.235 209.266, 87.838 210.456, 88.250 210.691 C 88.662 210.926, 89 210.888, 89 210.606 C 89 210.324, 87.537 209.451, 85.750 208.666 C 83.963 207.880, 80.857 206.509, 78.849 205.619 C 74.602 203.736, 74.306 203.696, 73.553 204.915 M 100.579 213.872 C 99.980 214.842, 112.837 219.496, 113.708 218.625 C 114.011 218.322, 112.963 217.545, 111.379 216.897 C 109.796 216.249, 107.082 215.107, 105.349 214.359 C 101.640 212.759, 101.289 212.723, 100.579 213.872" stroke="none" fill="black" fill-rule="evenodd"/>
	<path fill-opacity="0.143" d="M 99.610 20.741 L 93.719 26.439 93.923 41.122 C 94.054 50.625, 93.751 56.036, 93.063 56.461 C 92.478 56.822, 92 58.047, 92 59.181 C 92 60.902, 92.249 61.038, 93.500 60 C 94.325 59.315, 95 57.959, 95 56.985 C 95 56.012, 97.805 52.619, 101.232 49.445 L 107.465 43.675 107.238 29.589 C 107.113 21.842, 106.671 15.400, 106.255 15.273 C 105.840 15.147, 102.849 17.607, 99.610 20.741 M 149.122 32.165 C 142.941 38.934, 143.289 37.072, 142.645 66.815 C 142.228 86.104, 142.048 86.623, 136.420 84.768 L 132.500 83.477 132.500 67.074 C 132.500 51.257, 131.396 45.836, 129.362 51.667 C 129.010 52.675, 126.336 55.975, 123.420 59 L 118.118 64.500 117.982 77.500 C 117.689 105.433, 118.358 110.811, 120.935 101.242 C 121.585 98.826, 123.906 95.549, 127.434 92.065 L 132.922 86.645 137.211 87.738 C 139.570 88.339, 142.446 89.129, 143.602 89.493 C 145.602 90.124, 145.714 89.783, 145.906 82.505 C 146.136 73.840, 147.020 71.267, 151.831 65.258 L 155.228 61.016 155.679 44.107 C 155.927 34.807, 155.763 26.990, 155.315 26.736 C 154.867 26.482, 152.080 28.925, 149.122 32.165 M 78.518 38.944 C 78.178 40.013, 75.200 43.228, 71.899 46.088 C 68.193 49.298, 66.103 51.825, 66.436 52.693 C 66.732 53.466, 67.017 60.027, 67.068 67.274 C 67.182 83.494, 67.081 83.339, 73.475 77.025 L 78.710 71.854 85.908 74.041 C 89.867 75.243, 93.363 75.970, 93.677 75.657 C 95.133 74.200, 92.779 72.234, 88.965 71.722 C 82.978 70.919, 82.973 70.906, 82.387 53.946 C 82.094 45.492, 81.636 38.221, 81.369 37.788 C 80.508 36.395, 79.152 36.945, 78.518 38.944 M 204.532 40.591 C 203.605 42.007, 201.279 44.899, 199.364 47.019 C 196.206 50.515, 195.837 51.555, 195.408 58.187 C 195.148 62.209, 194.312 72.925, 193.552 82 C 192.791 91.075, 191.928 102.100, 191.635 106.500 C 190.162 128.536, 188.914 141.830, 188.027 144.913 C 185.889 152.349, 177.660 160.474, 179.437 153.395 C 180.066 150.890, 181.515 134.248, 182.563 117.500 C 183.525 102.137, 185.182 77.447, 185.702 70.750 C 186.149 64.990, 185.989 64, 184.613 64 C 183.726 64, 183 64.718, 183 65.596 C 183 66.474, 180.607 69.962, 177.682 73.346 C 172.367 79.496, 172.363 79.505, 172.116 87 C 171.887 93.957, 170.601 118.139, 169.590 134.500 C 169.352 138.350, 168.869 148.025, 168.516 156 C 167.751 173.273, 166.988 176.620, 162.345 183.083 C 157.962 189.183, 156.818 188.615, 157.508 180.682 C 158.513 169.150, 158.892 162.533, 159.525 145.500 C 160.394 122.111, 160.999 107.596, 161.401 100.500 C 161.866 92.282, 161.250 91.340, 158.303 95.762 C 156.932 97.818, 153.874 101.525, 151.507 104 L 147.203 108.500 146.560 129.500 C 145.444 165.948, 144.974 179.252, 144.496 188 C 144.240 192.675, 143.948 202.800, 143.847 210.500 C 143.574 231.258, 142.750 231.799, 169 193.999 C 174.775 185.683, 183.601 173.035, 188.614 165.892 L 197.728 152.904 198.912 138.702 C 199.563 130.891, 200.529 120, 201.059 114.500 C 201.589 109, 202.700 96.476, 203.528 86.669 C 204.356 76.861, 205.483 64.711, 206.034 59.669 C 208.080 40.921, 208.174 39.226, 207.201 38.624 C 206.661 38.290, 205.460 39.175, 204.532 40.591 M 50.151 65.103 C 49.643 66.438, 46.493 70.232, 43.149 73.534 L 37.071 79.538 38.053 89.019 C 40.224 109.974, 44.372 159.978, 44.548 167.317 C 44.741 175.402, 45.981 178.419, 48.200 176.200 C 49.133 175.267, 49.133 175, 48.200 175 C 45.579 175, 47.313 172.136, 53.874 165.625 C 60.446 159.104, 60.694 158.686, 59.508 156.152 C 58.459 153.909, 57.346 138.496, 55.418 99.500 C 53.989 70.602, 52.287 59.485, 50.151 65.103 M 104 77.907 C 104 78.625, 100.844 82.468, 96.987 86.446 L 89.974 93.678 90.431 109.089 C 90.682 117.565, 91.174 133.500, 91.524 144.500 C 91.874 155.500, 92.253 170.993, 92.366 178.929 C 92.569 193.090, 93.935 198.340, 95.592 191.321 C 95.958 189.769, 98.923 185.216, 102.181 181.202 C 106.897 175.391, 107.959 173.455, 107.390 171.702 C 106.450 168.806, 106.445 158.707, 107.383 157.190 C 107.787 156.536, 107.827 155.529, 107.472 154.954 C 107.116 154.379, 106.627 136.951, 106.384 116.226 C 106.121 93.813, 105.549 78.149, 104.971 77.571 C 104.343 76.943, 104 77.061, 104 77.907 M 13.370 97.250 C 13.701 98.487, 13.979 100.963, 13.986 102.750 C 13.994 104.537, 14.484 106, 15.075 106 C 15.667 106, 16.021 104.762, 15.862 103.249 C 15.704 101.737, 15.933 99.917, 16.373 99.206 C 17.219 97.837, 15.457 95, 13.761 95 C 13.214 95, 13.038 96.013, 13.370 97.250 M 117.948 108.750 C 117.326 141.422, 117.645 163, 118.750 163 C 120.244 163, 120.215 164.071, 120.038 116.250 C 120.015 110.109, 119.599 106, 119 106 C 118.450 106, 117.976 107.237, 117.948 108.750 M 69.750 190.576 C 69.338 190.993, 69 194.273, 69 197.867 C 69 202.436, 69.316 204.084, 70.052 203.348 C 70.634 202.766, 70.969 199.514, 70.802 196.058 C 70.636 192.626, 70.162 190.160, 69.750 190.576 M 92.826 203.055 C 92.538 210.182, 93.138 212.995, 94.950 213.002 C 95.252 213.004, 95.356 208.954, 95.179 204.002 C 94.780 192.820, 93.265 192.209, 92.826 203.055 M 117.494 198.009 C 116.713 199.274, 117.837 203, 119 203 C 120.163 203, 121.287 199.274, 120.506 198.009 C 120.163 197.454, 119.485 197, 119 197 C 118.515 197, 117.837 197.454, 117.494 198.009 M 117.850 211 C 117.767 214.850, 117.655 218.525, 117.600 219.167 C 117.545 219.808, 118.063 220.521, 118.750 220.750 C 119.685 221.062, 120 219.006, 120 212.583 C 120 202.214, 118.069 200.792, 117.850 211" stroke="none" fill="black" fill-rule="evenodd"/>
	<path fill-opacity="0.974" d="M 104.253 16.512 C 103.775 17.367, 101.211 19.862, 98.555 22.056 L 93.726 26.047 94.037 35.273 C 94.208 40.348, 94.290 45.850, 94.219 47.500 C 93.870 55.619, 94.605 55.828, 101.059 49.441 L 107 43.563 107 29.840 C 107 16.835, 106.212 13.012, 104.253 16.512 M 148.567 33.180 L 143.635 39.247 143.198 61.374 C 142.782 82.429, 142.088 87.791, 139.950 86.469 C 139.427 86.146, 139 86.310, 139 86.833 C 139 88.001, 143.732 89.284, 145.046 88.472 C 145.571 88.147, 146 84.788, 146 81.006 C 146 72.672, 147.070 69.581, 151.549 64.968 L 154.979 61.437 155.350 44.218 C 155.776 24.431, 155.735 24.365, 148.567 33.180 M 73.704 44.631 L 66.911 51.099 67.153 65.061 C 67.455 82.400, 67.641 82.728, 73.479 76.235 C 77.360 71.918, 78.459 71.220, 80.302 71.898 C 84.606 73.482, 88 74.024, 88 73.127 C 88 72.627, 86.882 71.936, 85.515 71.593 C 82.386 70.808, 82.166 69.720, 81.705 52.749 C 81.499 45.186, 81.143 38.810, 80.914 38.581 C 80.685 38.351, 77.440 41.074, 73.704 44.631 M 201.380 45.022 L 196.354 51.038 195.150 66.269 C 194.487 74.646, 193.484 87.575, 192.920 95 C 192.357 102.425, 191.469 112.355, 190.948 117.068 C 190.426 121.780, 189.995 128.755, 189.989 132.568 C 189.976 140.791, 187.974 148.054, 184.621 152.039 C 183.284 153.627, 182.009 155.472, 181.787 156.140 C 180.903 158.790, 178.813 155.736, 179.385 152.632 C 179.703 150.909, 180.636 139.600, 181.459 127.500 C 182.746 108.569, 183.722 94.761, 185.502 70.250 C 185.798 66.168, 185.562 65, 184.442 65 C 183.649 65, 183 65.501, 183 66.114 C 183 66.727, 180.816 69.765, 178.147 72.864 C 172.167 79.810, 172.901 73.614, 169.484 146 C 168.309 170.901, 167.502 175.600, 163.286 182.087 C 157.649 190.762, 156.595 190.080, 157.350 178.250 C 157.693 172.887, 158.408 158.150, 158.939 145.500 C 159.470 132.850, 160.217 116.253, 160.599 108.618 C 161.399 92.640, 161.597 92.805, 153.275 102.500 L 147.265 109.500 146.615 130.500 C 143.420 233.691, 143.185 230.247, 152.518 216.971 C 155.258 213.074, 159.168 207.549, 161.207 204.693 C 163.246 201.837, 165.946 198.004, 167.207 196.175 C 168.468 194.347, 170.873 190.972, 172.551 188.675 C 176.636 183.085, 191.836 160.871, 195.140 155.662 C 197.580 151.816, 197.907 149.943, 199.447 131 C 200.364 119.725, 201.529 105.497, 202.035 99.383 C 203.549 81.127, 205.940 56.008, 206.926 48 C 208.132 38.202, 207.405 37.812, 201.380 45.022 M 124.706 57.576 L 118.912 63.747 118.622 83.279 C 118.385 99.238, 118.576 102.716, 119.666 102.298 C 120.400 102.016, 121.010 101.047, 121.022 100.143 C 121.061 97.217, 132.585 86.079, 134.938 86.694 C 136.191 87.022, 137 86.753, 137 86.010 C 137 85.337, 136.367 85.029, 135.594 85.326 C 134.201 85.860, 130.550 82.783, 131.478 81.856 C 132.352 80.981, 132.243 52.839, 131.362 52.114 C 130.888 51.724, 127.893 54.182, 124.706 57.576 M 47.761 68.786 C 45.756 71.415, 42.690 74.837, 40.947 76.390 L 37.778 79.213 38.452 88.357 C 38.822 93.385, 39.292 99.810, 39.495 102.633 C 39.699 105.456, 40.114 109.281, 40.418 111.133 C 40.722 112.985, 41.208 119.391, 41.499 125.369 C 41.790 131.346, 42.229 136.562, 42.475 136.959 C 42.720 137.356, 43.138 141.465, 43.403 146.090 C 43.668 150.716, 44.130 155.617, 44.430 156.983 C 44.730 158.348, 45.037 162.511, 45.114 166.233 C 45.190 169.955, 45.534 173.009, 45.877 173.021 C 47.684 173.082, 59.752 158.401, 59.038 157.010 C 58.611 156.180, 57.945 148.525, 57.558 140 C 57.172 131.475, 56.731 122.925, 56.578 121 C 55.295 104.837, 53.979 85.652, 53.529 76.544 C 52.874 63.295, 52.417 62.680, 47.761 68.786 M 100.500 83.120 C 98.850 85.361, 95.925 88.622, 94 90.368 L 90.500 93.542 90.731 107.021 C 90.858 114.434, 91.198 126.350, 91.486 133.500 C 91.774 140.650, 92.226 156.806, 92.490 169.402 C 93.006 194.017, 93.136 194.962, 95.319 189.858 C 96.108 188.011, 99.364 183.641, 102.554 180.148 C 107.420 174.817, 108.175 173.510, 107.248 172.025 C 106.542 170.894, 106.144 163.436, 106.147 151.377 C 106.164 73.742, 106.290 75.260, 100.500 83.120" stroke="none" fill="black" fill-rule="evenodd"/>
</svg>