<svg xmlns="http://www.w3.org/2000/svg" width="100%" height="auto" viewBox="0 0 228 210" version="1.1">
	<path d="M 92.075 6.120 C 27.137 19.748, -7.005 89.640, 23.286 146.935 C 48.929 195.440, 109.015 214.686, 158.500 190.246 C 183.636 177.831, 204.932 152.485, 210.798 128 C 213.651 116.094, 214 113.341, 214 102.737 C 214 39.834, 154.834 -7.051, 92.075 6.120 M 103.500 39.581 C 87.667 43.400, 79.858 46.933, 71.356 54.122 C 42.606 78.431, 40.028 117.986, 65.444 144.812 C 86.815 167.368, 120.676 172.070, 147.021 156.140 C 150.584 153.985, 153.500 151.731, 153.500 151.129 C 153.500 149.440, 136.101 130, 134.589 130 C 133.854 130, 131.058 131.238, 128.376 132.750 C 121.036 136.890, 106.149 136.792, 97.710 132.548 C 79.614 123.448, 73.584 102.435, 83.883 84.364 C 93.486 67.515, 120.603 63.701, 135.891 77.049 C 137.732 78.656, 139.747 79.674, 140.369 79.312 C 144.820 76.716, 162 62.611, 162 61.551 C 162 58.806, 149.025 48.917, 139.910 44.713 C 131.401 40.790, 110.628 37.861, 103.500 39.581 M 179.130 53.533 C 173.008 58.243, 168 62.344, 168 62.647 C 168 62.950, 169.570 65.741, 171.488 68.849 C 185.791 92.022, 183.100 123.812, 165.101 144.308 C 162.295 147.503, 160 150.604, 160 151.200 C 160 152.274, 164.215 157.416, 173.742 167.960 L 178.675 173.421 184.587 167.090 C 193.921 157.097, 200.322 146.785, 206.061 132.500 C 213.986 112.771, 211.768 80.931, 201.053 60.614 C 191.850 43.164, 192.383 43.336, 179.130 53.533 M 131.750 89.611 C 126.216 93.959, 124.875 96.186, 127 97.500 C 128.470 98.409, 128.218 103.543, 126.500 107.654 C 124.370 112.751, 124.454 113.025, 129.995 119.060 L 134.991 124.500 138.516 120.560 C 143.021 115.524, 142.581 114.500, 135.916 114.500 C 130.701 114.500, 130.488 114.394, 130.173 111.643 C 129.549 106.186, 134.494 99.275, 138.198 100.428 C 144.529 102.398, 144.842 102.260, 144.286 97.745 C 143.608 92.242, 140.477 84.987, 138.806 85.047 C 138.088 85.073, 134.912 87.127, 131.750 89.611 M 118.500 100.423 L 115.500 102.836 118.437 105.918 C 120.052 107.613, 121.685 109, 122.066 109 C 123.424 109, 125.215 102.993, 124.594 100.519 C 123.804 97.371, 122.324 97.347, 118.500 100.423 M 135.655 105.829 C 133.663 108.030, 133.481 111, 135.339 111 C 136.601 111, 139 107.037, 139 104.953 C 139 103.438, 137.452 103.843, 135.655 105.829 M 142.484 107.072 C 141.879 109.829, 142.386 112.001, 143.383 110.917 C 144.408 109.803, 145.059 104, 144.159 104 C 143.609 104, 142.855 105.382, 142.484 107.072" stroke="none" fill="black" fill-rule="evenodd"/>
</svg>