<svg xmlns="http://www.w3.org/2000/svg" width="100%" height="auto" viewBox="0 0 252 249" version="1.1">
	<path d="M 10 10.999 C 8.785 13.270, 8.622 238.856, 9.834 240.766 C 10.939 242.507, 238.539 242.628, 240.635 240.888 C 241.774 239.943, 242 220.877, 242 125.949 C 242 25.817, 241.819 11.962, 240.491 10.634 C 239.163 9.306, 225.290 9.125, 124.991 9.128 C 14.688 9.130, 10.968 9.191, 10 10.999 M 16.250 14.820 L 14 15.139 14 49.447 C 14 75.680, 14.294 83.997, 15.250 84.781 C 16.872 86.113, 79.041 86.315, 82.500 85 L 85 84.050 85 50.084 C 85 27.981, 84.642 15.897, 83.976 15.485 C 82.939 14.844, 20.403 14.230, 16.250 14.820 M 91.426 15.300 C 90.235 15.968, 90 21.688, 90 50.015 C 90 82.522, 90.080 83.973, 91.934 84.965 C 94.911 86.558, 156.127 86.360, 158.324 84.750 C 159.883 83.607, 160.007 80.576, 159.765 49.500 L 159.500 15.500 126.176 15 C 107.848 14.725, 92.211 14.860, 91.426 15.300 M 199 14.980 L 165.500 15.500 165.235 49.500 C 164.993 80.576, 165.117 83.607, 166.676 84.750 C 168.875 86.361, 232.086 86.560, 235.066 84.965 C 236.920 83.973, 237 82.522, 237 50 C 237 17.478, 236.920 16.027, 235.066 15.035 C 234.002 14.466, 232.989 14.103, 232.816 14.230 C 232.642 14.356, 217.425 14.694, 199 14.980 M 15.334 91.500 C 14.220 92.317, 14.019 98.716, 14.235 126.500 L 14.500 160.500 49.500 160.500 L 84.500 160.500 84.763 126.224 C 84.976 98.552, 84.772 91.850, 83.705 91.440 C 81.070 90.429, 16.717 90.485, 15.334 91.500 M 123.500 91 L 90.500 91.500 90.500 126 L 90.500 160.500 125 160.500 L 159.500 160.500 159.763 126.292 C 160.008 94.436, 159.905 92.030, 158.263 91.292 C 157.293 90.856, 141.650 90.725, 123.500 91 M 165.460 92.244 C 165.192 92.943, 165.091 108.586, 165.236 127.007 L 165.500 160.500 201 160.500 L 236.500 160.500 236.500 126 L 236.500 91.500 201.224 91.237 C 173.437 91.030, 165.844 91.244, 165.460 92.244 M 15.656 166.826 C 14.113 167.125, 13.996 170.009, 14.237 201.826 L 14.500 236.500 45.500 237 C 62.550 237.275, 78.300 237.275, 80.500 237 L 84.500 236.500 84.763 201.750 L 85.026 167 82.263 167.001 C 80.743 167.001, 65.514 166.889, 48.419 166.751 C 31.324 166.613, 16.581 166.647, 15.656 166.826 M 91.663 166.826 C 90.111 167.125, 89.996 169.954, 90.237 201.826 L 90.500 236.500 123.824 237 C 142.152 237.275, 157.789 237.140, 158.574 236.700 C 159.766 236.032, 160 230.240, 160 201.450 C 160 182.503, 159.662 166.989, 159.250 166.976 C 151.376 166.722, 92.873 166.592, 91.663 166.826 M 165.901 167.619 C 165.359 168.272, 165.083 182.817, 165.237 202.619 L 165.500 236.500 201 236.500 L 236.500 236.500 236.764 202.564 C 236.908 183.898, 236.631 168.231, 236.147 167.747 C 234.778 166.378, 167.034 166.254, 165.901 167.619" stroke="none" fill="black" fill-rule="evenodd"/>
</svg>