<svg xmlns="http://www.w3.org/2000/svg" width="100%" height="auto" viewBox="0 0 346 289" version="1.1">
	<path d="M 83 21.741 C 53.878 21.983, 50.370 22.187, 49.250 23.697 C 48.289 24.993, 48 37.085, 48 76.066 L 48 126.750 44.875 127.375 C 43.156 127.719, 37.277 128, 31.809 128 C 26.342 128, 20.998 128.466, 19.934 129.035 C 18.051 130.043, 18 131.862, 18 197.913 C 18 250.989, 18.272 265.972, 19.250 266.750 C 21.098 268.221, 321.244 269.475, 323.958 268.023 C 325.989 266.936, 326 266.480, 326 183.665 C 326 120.237, 325.714 100.114, 324.800 99.200 C 323.886 98.286, 304.193 98, 242.269 98 C 178.103 98, 160.845 97.736, 160.501 96.750 C 160.262 96.063, 159.902 79.438, 159.702 59.806 C 159.424 32.552, 159.032 23.744, 158.046 22.556 C 156.942 21.225, 153.766 21.034, 136.128 21.236 C 124.782 21.365, 100.875 21.593, 83 21.741 M 96.713 27 C 61.030 27.427, 54.787 27.719, 53.978 29 C 53.416 29.890, 53.024 50.125, 53.015 78.781 C 53.002 120.832, 53.194 127.123, 54.500 127.531 C 59.640 129.137, 59.576 129.093, 58 129.963 C 55.433 131.380, 42.504 133, 33.758 133 C 28.591 133, 24.942 133.458, 24.200 134.200 C 23.292 135.108, 23 150.560, 23 197.618 C 23 231.838, 23.273 260.548, 23.607 261.418 C 24.152 262.838, 30.838 263, 88.907 263 C 137.059 263, 153.900 262.700, 154.773 261.827 C 155.662 260.938, 156.557 260.933, 158.473 261.806 C 160.306 262.641, 182.675 262.975, 240.021 263.024 C 283.483 263.061, 319.484 262.819, 320.022 262.487 C 321.098 261.821, 321.451 107.339, 320.383 104.555 C 319.822 103.093, 312.239 102.953, 237.633 103.029 L 155.500 103.113 154.850 100.807 C 154.492 99.538, 154.148 82.750, 154.084 63.500 C 154.021 44.250, 153.639 28.050, 153.235 27.500 C 152.385 26.343, 151.955 26.339, 96.713 27 M 155 112.309 C 155 113.579, 155.643 115.491, 156.429 116.559 C 157.761 118.369, 157.903 118.382, 158.536 116.748 C 159.512 114.232, 158.222 110, 156.481 110 C 155.601 110, 155 110.936, 155 112.309 M 155.033 125.939 C 154.289 127.328, 152.936 128, 150.881 128 C 146.208 128, 147.901 130.394, 153.081 131.112 C 157.964 131.789, 159.171 130.931, 158.759 127.077 C 158.422 123.927, 156.434 123.320, 155.033 125.939 M 66.244 129.250 C 66.881 131.191, 72 131.472, 72 129.566 C 72 128.483, 71.049 128, 68.917 128 C 66.898 128, 65.975 128.432, 66.244 129.250 M 80.250 129.250 C 80.479 129.938, 81.717 130.500, 83 130.500 C 84.283 130.500, 85.521 129.938, 85.750 129.250 C 86.025 128.425, 85.089 128, 83 128 C 80.911 128, 79.975 128.425, 80.250 129.250 M 93.496 129.007 C 92.750 130.214, 95.198 131.302, 97.609 130.835 C 98.558 130.651, 99.522 129.938, 99.750 129.250 C 100.258 127.725, 94.428 127.499, 93.496 129.007 M 107.250 129.250 C 107.479 129.938, 108.942 130.500, 110.500 130.500 C 112.058 130.500, 113.521 129.938, 113.750 129.250 C 114.033 128.402, 112.989 128, 110.500 128 C 108.011 128, 106.967 128.402, 107.250 129.250 M 120.544 128.928 C 119.760 130.198, 123.539 131.281, 126.015 130.495 C 128.800 129.611, 127.499 128, 124 128 C 122.415 128, 120.860 128.418, 120.544 128.928 M 134.496 129.007 C 133.750 130.214, 136.198 131.302, 138.609 130.835 C 139.558 130.651, 140.522 129.938, 140.750 129.250 C 141.258 127.725, 135.428 127.499, 134.496 129.007 M 155.365 141.076 C 156.160 145.052, 156.706 145.694, 158.101 144.299 C 159.748 142.652, 158.752 138.569, 156.605 138.159 C 154.956 137.845, 154.795 138.225, 155.365 141.076 M 155 153.736 C 155 154.771, 155.643 156.491, 156.429 157.559 C 157.731 159.328, 157.915 159.351, 158.513 157.808 C 159.515 155.224, 158.674 152.561, 156.739 152.188 C 155.584 151.966, 155 152.486, 155 153.736 M 155.380 166.451 C 154.577 168.544, 156.655 173.331, 158.004 172.497 C 159.512 171.566, 159.196 167.408, 157.512 166.010 C 156.304 165.007, 155.903 165.090, 155.380 166.451 M 155.014 180.177 C 155.045 183.199, 156.327 186, 157.680 186 C 159.880 186, 159.008 179.613, 156.750 179.185 C 155.787 179.003, 155.006 179.449, 155.014 180.177 M 155.380 193.451 C 154.577 195.544, 156.655 200.331, 158.004 199.497 C 159.512 198.566, 159.196 194.408, 157.512 193.010 C 156.304 192.007, 155.903 192.090, 155.380 193.451 M 155.515 206.976 C 154.512 208.599, 156.016 214.160, 157.341 213.726 C 159.092 213.152, 159.302 208.495, 157.640 207.116 C 156.621 206.270, 155.977 206.228, 155.515 206.976 M 155.385 223.177 C 156.225 227.374, 156.883 227.881, 158.543 225.610 C 160.177 223.376, 158.851 220, 156.340 220 C 155.087 220, 154.885 220.673, 155.385 223.177 M 155.015 236.177 C 155.038 239.569, 156.631 241.769, 158.043 240.357 C 159.672 238.728, 158.802 234.578, 156.750 234.187 C 155.487 233.946, 155.004 234.500, 155.015 236.177 M 155 249.736 C 155 250.771, 155.643 252.491, 156.429 253.559 C 157.731 255.328, 157.915 255.351, 158.513 253.808 C 159.515 251.224, 158.674 248.561, 156.739 248.188 C 155.584 247.966, 155 248.486, 155 249.736" stroke="none" fill="black" fill-rule="evenodd"/>
</svg>