<svg xmlns="http://www.w3.org/2000/svg" width="100%" height="auto" viewBox="0 0 277 187" version="1.1">
	<path d="M 65.545 14.927 C 64.941 15.904, 63.371 20.174, 49.708 58 C 45.039 70.925, 40.534 83.300, 39.697 85.500 C 38.019 89.913, 36.494 94.146, 26.011 123.500 C 22.082 134.500, 18.011 145.750, 16.964 148.500 C 9.364 168.452, 7.941 173.369, 9.355 174.784 C 10.563 175.991, 14.406 175.466, 36.630 171.053 C 50.859 168.227, 64.300 165.488, 66.500 164.965 C 68.700 164.443, 81.750 161.741, 95.500 158.962 C 109.250 156.184, 129.500 152.078, 140.500 149.839 C 151.500 147.600, 162.525 145.389, 165 144.927 C 167.475 144.464, 183.900 141.128, 201.500 137.513 C 219.100 133.898, 241.600 129.326, 251.500 127.354 C 270.029 123.662, 273.360 122.343, 271.083 119.600 C 270.399 118.775, 254.912 110.370, 236.669 100.921 C 218.426 91.472, 199.450 81.612, 194.500 79.011 C 183.207 73.075, 163.231 62.694, 142.500 51.987 C 133.700 47.442, 123.350 42.044, 119.500 39.990 C 115.650 37.936, 103.500 31.637, 92.500 25.992 C 81.500 20.347, 72.073 15.340, 71.550 14.864 C 70.288 13.716, 66.267 13.758, 65.545 14.927 M 66.964 25.583 C 65.884 28.104, 65 30.419, 65 30.729 C 65 31.302, 53.244 64.075, 47.921 78.342 C 46.312 82.655, 45.215 86.539, 45.484 86.973 C 45.752 87.408, 48.116 87.360, 50.736 86.866 C 53.356 86.372, 57.750 85.542, 60.500 85.021 C 111.738 75.316, 141.161 69.695, 150.285 67.869 C 153.481 67.230, 155.913 66.238, 155.718 65.654 C 155.373 64.620, 144.717 58.919, 99 35.310 C 86.625 28.920, 75.612 23.086, 74.527 22.346 C 70.945 19.902, 69.053 20.712, 66.964 25.583 M 158.917 71.417 C 158.687 71.646, 149.725 73.459, 139 75.446 C 128.275 77.433, 111.400 80.618, 101.500 82.523 C 91.600 84.429, 78.775 86.893, 73 87.999 C 52.358 91.952, 50.934 92.301, 51.273 93.318 C 51.622 94.366, 59.985 99.035, 109.449 125.794 C 130.317 137.084, 137.724 140.644, 138.682 139.849 C 139.388 139.263, 140.385 137.370, 140.896 135.642 C 141.408 133.914, 145.269 122.600, 149.475 110.500 C 161.531 75.821, 162.157 73.852, 161.594 72.386 C 161.079 71.042, 159.766 70.567, 158.917 71.417 M 168.268 73.250 C 167.731 73.938, 165.001 81.250, 162.201 89.500 C 159.401 97.750, 154.205 112.969, 150.654 123.320 C 143.776 143.371, 143.751 143.931, 149.781 142.668 C 164.703 139.541, 198.564 132.672, 202.500 131.974 C 210.342 130.582, 256.357 121.051, 257.750 120.530 C 260.679 119.435, 258.125 117.629, 242.750 109.924 C 233.813 105.445, 226.050 101.439, 225.500 101.022 C 224.950 100.606, 213.250 94.508, 199.500 87.471 C 185.750 80.434, 173.612 74.074, 172.527 73.338 C 170.088 71.683, 169.502 71.671, 168.268 73.250 M 39.964 100.583 C 38.884 103.104, 38 105.444, 38 105.783 C 38 106.123, 36.455 110.473, 34.567 115.450 C 25.791 138.584, 16.872 164.160, 16.695 166.699 C 16.557 168.685, 16.936 169.439, 18 169.289 C 19.424 169.089, 40.369 164.871, 103.500 152.072 C 123.473 148.023, 131.500 146.010, 131.500 145.051 C 131.500 143.752, 125.475 140.145, 106.500 130.085 C 96.259 124.655, 89.247 120.859, 62.599 106.315 C 52.204 100.642, 43.300 96, 42.814 96 C 42.327 96, 41.045 98.062, 39.964 100.583" stroke="none" fill="black" fill-rule="evenodd"/>
</svg>