<svg xmlns="http://www.w3.org/2000/svg" width="100%" height="auto" viewBox="0 0 134 151" version="1.1">
	<path fill-opacity="0.522" d="M 64.980 18.524 C 63.205 20.663, 64.275 21.288, 67.330 19.896 C 69.450 18.930, 70.371 19.013, 72.424 20.358 C 75.222 22.192, 77 22.469, 77 21.073 C 77 18.080, 67.093 15.979, 64.980 18.524 M 78.561 23.099 C 78.935 23.703, 80.585 24.763, 82.228 25.454 L 85.216 26.710 82.358 28.698 C 80.786 29.791, 77.204 31.958, 74.399 33.512 L 69.298 36.339 62.700 32.649 C 59.071 30.620, 55.375 28.232, 54.487 27.344 C 51.869 24.726, 51.145 26.841, 50.813 38.077 L 50.500 48.654 58.248 53.077 C 67.376 58.288, 67.572 58.922, 61.010 61.995 C 58.266 63.281, 55.113 65.178, 54.004 66.211 C 52.021 68.058, 51.872 68.027, 45.243 64.387 C 41.534 62.351, 37.521 59.808, 36.324 58.737 C 32.900 55.674, 32.173 57.227, 32.745 66.387 C 33.444 77.594, 32.937 79.167, 27.779 81.803 C 25.426 83.006, 22.375 84.920, 21 86.058 L 18.500 88.125 21 87.485 C 22.375 87.133, 25.426 85.530, 27.779 83.922 C 33.161 80.247, 32.812 80.218, 41.076 85.044 C 48.996 89.670, 49.172 90.018, 44.750 92.327 C 42.962 93.260, 40.150 94.913, 38.500 96.001 C 36.850 97.088, 34.929 98.259, 34.231 98.603 C 33.533 98.947, 29.111 96.927, 24.405 94.114 C 19.698 91.301, 15.642 89, 15.391 89 C 15.140 89, 15.062 94.044, 15.217 100.209 L 15.500 111.417 23.500 116.196 C 33.513 122.176, 46.503 129.636, 53.301 133.310 C 56.160 134.855, 60.178 137.217, 62.229 138.560 C 68.580 142.717, 73.003 141.350, 93.222 128.980 C 95.820 127.391, 100.320 124.767, 103.222 123.149 C 106.125 121.531, 111.875 118.212, 116 115.773 L 123.500 111.340 123.784 100.656 L 124.068 89.973 120.284 87.740 C 118.203 86.512, 116.388 85.618, 116.250 85.754 C 115.406 86.586, 116.171 87.568, 118 88 C 121.672 88.867, 120.564 90.372, 112.955 94.857 C 107.234 98.231, 105.218 98.974, 104.032 98.148 C 103.189 97.561, 99.654 95.447, 96.174 93.449 C 92.695 91.452, 90.002 89.664, 90.189 89.477 C 90.377 89.290, 94.067 87.121, 98.391 84.656 L 106.252 80.176 106.070 69.338 C 105.882 58.219, 105.008 55.297, 102.754 58.250 C 99.443 62.587, 85.966 68.372, 84.541 66.067 C 84.224 65.554, 81.498 63.885, 78.482 62.358 C 75.467 60.831, 73 59.097, 73 58.504 C 73 57.170, 85.435 49.918, 88.061 49.720 C 89.323 49.625, 89.639 49.239, 88.988 48.588 C 88.445 48.045, 88 43.025, 88 37.433 L 88 27.266 84.021 24.633 C 79.892 21.900, 77.385 21.196, 78.561 23.099 M 67 61.063 C 66.175 61.582, 62.896 63.539, 59.714 65.410 L 53.928 68.813 56.714 70.749 C 58.246 71.814, 61.750 73.922, 64.500 75.433 L 69.500 78.181 76.750 73.961 C 80.737 71.640, 84 69.408, 84 69 C 84 68.235, 70.217 59.954, 69.118 60.059 C 68.778 60.091, 67.825 60.543, 67 61.063 M 48 92.930 C 46.625 93.930, 43.294 95.989, 40.598 97.505 C 35.741 100.237, 35.716 100.277, 37.850 101.881 C 41.989 104.993, 50.976 109.222, 52.233 108.649 C 56.166 106.855, 65.456 101.133, 65.719 100.342 C 65.974 99.577, 52.062 90.876, 50.870 91.056 C 50.666 91.086, 49.375 91.930, 48 92.930 M 80 95.133 C 71.188 100.577, 71.280 100.304, 77.225 103.381 C 80.126 104.883, 83.645 106.824, 85.043 107.695 C 87.483 109.214, 87.904 109.104, 95.377 105.003 L 103.168 100.727 98.334 97.719 C 95.675 96.064, 92.281 93.876, 90.790 92.855 C 87.323 90.481, 87.637 90.414, 80 95.133 M 67.833 101.819 C 67.650 102.270, 64.408 104.480, 60.628 106.730 L 53.756 110.821 57.628 113.251 C 59.758 114.587, 63.300 116.695, 65.500 117.936 L 69.500 120.192 76.746 115.846 C 84.368 111.275, 85.273 110.146, 82 109.290 C 80.900 109.002, 80 108.369, 80 107.883 C 80 107.398, 79.519 107, 78.930 107 C 78.342 107, 75.898 105.650, 73.500 104 C 68.780 100.753, 68.337 100.582, 67.833 101.819" stroke="none" fill="black" fill-rule="evenodd"/>
	<path fill-opacity="0.196" d="M 80.500 30.160 C 69.368 37.340, 70.037 37.224, 62.844 33.231 C 59.355 31.294, 55.741 29.056, 54.813 28.257 C 51.782 25.647, 51 27.724, 51 38.380 L 51 48.642 59.500 53.413 C 64.175 56.037, 68 58.497, 68 58.879 C 68 59.262, 68.951 59.646, 70.113 59.734 C 71.275 59.821, 71.946 59.613, 71.604 59.271 C 70.978 58.644, 81.831 51.368, 85.316 50.079 C 87.054 49.436, 88.514 28.002, 86.912 26.641 C 86.686 26.448, 83.800 28.032, 80.500 30.160 M 70.917 39.250 C 70.139 41.584, 70.132 49.395, 70.906 50.726 C 71.692 52.075, 71.946 50.882, 71.970 45.750 C 71.994 40.348, 71.522 37.434, 70.917 39.250 M 33.429 59.323 C 33.151 60.049, 33.053 65.058, 33.212 70.455 C 33.498 80.216, 33.516 80.276, 36.500 81.884 C 38.150 82.773, 41.975 85.043, 45 86.930 C 48.025 88.816, 53.425 91.916, 57 93.818 C 60.575 95.720, 64.694 98.114, 66.154 99.138 C 69.539 101.512, 69.006 101.611, 75.610 97.387 C 78.717 95.399, 83.113 92.889, 85.379 91.808 C 87.646 90.727, 91.820 88.416, 94.656 86.672 C 97.492 84.927, 101.204 82.733, 102.906 81.797 L 106 80.093 106 69.047 C 106 56.979, 105.756 56.581, 100.683 60.390 C 98.932 61.705, 95.025 64.030, 92 65.558 C 88.975 67.086, 85.825 68.872, 85 69.526 C 82.766 71.300, 70.209 78, 69.120 78 C 68.600 78, 64.956 76.088, 61.021 73.750 C 57.085 71.412, 52.658 68.880, 51.183 68.122 C 49.707 67.364, 45.223 64.777, 41.218 62.374 C 35.961 59.219, 33.795 58.371, 33.429 59.323 M 70.570 82.887 C 69.714 84.272, 70.259 96, 71.179 96 C 71.631 96, 72 92.850, 72 89 C 72 82.220, 71.720 81.025, 70.570 82.887 M 15.623 89.710 C 15.281 90.053, 15 94.939, 15 100.568 L 15 110.803 24.102 116.401 C 29.109 119.481, 33.405 122, 33.651 122 C 33.896 122, 41.520 126.306, 50.594 131.569 C 71.179 143.510, 66.916 144.114, 100.500 124.500 C 106 121.288, 113.339 117.039, 116.809 115.059 L 123.117 111.459 123.124 100.980 C 123.128 95.216, 123.101 90.183, 123.065 89.795 C 123.029 89.407, 119.367 91.320, 114.927 94.045 C 105.637 99.747, 104.992 99.859, 100.629 96.531 C 96.510 93.389, 89.024 90.120, 90.773 92.226 C 91.423 93.009, 94.440 94.907, 97.477 96.444 C 100.515 97.981, 103 99.588, 103 100.015 C 103 101.061, 87.884 110.228, 72.801 118.330 L 69.101 120.317 61.801 116.038 C 57.785 113.685, 52.025 110.381, 49 108.697 C 45.975 107.012, 41.475 104.399, 39 102.890 C 36.525 101.380, 31.800 98.710, 28.500 96.957 C 25.200 95.203, 21.093 92.715, 19.373 91.427 C 17.654 90.140, 15.966 89.367, 15.623 89.710 M 72.554 102.281 C 73.002 103.446, 74.646 104.463, 81.750 107.962 C 84.450 109.292, 84.808 107.901, 82.130 106.487 C 81.102 105.944, 78.415 104.485, 76.159 103.245 C 73.682 101.882, 72.255 101.500, 72.554 102.281 M 70.015 127.750 C 70.024 130.363, 70.467 133.175, 71 134 C 71.683 135.057, 71.974 133.654, 71.985 129.250 C 71.993 125.740, 71.562 123, 71 123 C 70.450 123, 70.007 125.138, 70.015 127.750" stroke="none" fill="black" fill-rule="evenodd"/>
	<path fill-opacity="0.510" d="M 51.429 28.325 C 51.149 29.054, 51.051 33.889, 51.210 39.069 L 51.500 48.488 59.500 53.229 C 63.900 55.836, 68.004 58.227, 68.621 58.542 C 69.237 58.857, 71.294 58.062, 73.191 56.774 C 75.088 55.487, 79.084 53.155, 82.070 51.592 L 87.500 48.750 87.199 39.125 C 86.826 27.186, 86.561 26.212, 84.229 28.209 C 83.278 29.023, 79.825 31.193, 76.555 33.030 C 68.923 37.318, 71.198 38.239, 79.065 34.046 L 85 30.883 85 39.441 C 85 44.149, 84.634 48, 84.186 48 C 83.738 48, 80.363 50.018, 76.686 52.484 L 70 56.968 70 47.639 C 70 36.983, 70.194 37.296, 60.250 31.918 C 56.813 30.059, 54 28.192, 54 27.769 C 54 26.476, 51.970 26.915, 51.429 28.325 M 33.669 58.664 C 33.301 59.032, 33 63.960, 33 69.614 L 33 79.895 41.624 84.698 C 46.366 87.339, 52.554 90.787, 55.374 92.360 C 58.193 93.934, 62.448 96.530, 64.829 98.130 L 69.158 101.039 77.829 95.952 C 82.598 93.154, 87.175 90.450, 88 89.942 C 88.825 89.434, 91.525 87.885, 94 86.500 C 96.475 85.115, 100.048 83.096, 101.940 82.015 L 105.379 80.048 105.104 69.774 C 104.953 64.123, 104.683 59.352, 104.503 59.172 C 104.324 58.992, 100.425 60.938, 95.839 63.498 C 79.537 72.597, 71 77.922, 71 78.993 C 71 80.229, 76.594 78.194, 78.064 76.422 C 78.714 75.640, 79.810 75, 80.500 75 C 81.190 75, 82.290 74.355, 82.944 73.567 C 85.674 70.278, 87.519 72.085, 87.157 77.692 C 86.948 80.941, 87.221 83, 87.862 83 C 88.457 83, 89.036 80.120, 89.204 76.326 L 89.500 69.653 93.998 67.279 C 96.472 65.973, 98.924 64.476, 99.448 63.952 C 102.084 61.316, 103 63.075, 102.988 70.750 L 102.975 78.500 99.238 80.987 C 92.344 85.576, 90.172 86.388, 88.502 85.002 C 87.249 83.961, 87 84.096, 87 85.816 C 87 87.263, 85.318 88.864, 81.356 91.188 C 78.252 93.010, 74.636 95.508, 73.321 96.740 C 70.328 99.543, 70.110 98.986, 69.768 87.645 L 69.500 78.790 61 73.929 C 56.325 71.256, 51.815 68.716, 50.977 68.284 C 46.482 65.969, 37.291 60.512, 35.919 59.343 C 35.049 58.602, 34.037 58.297, 33.669 58.664 M 15.653 90.680 C 15.294 91.039, 15 95.719, 15 101.079 L 15 110.825 22.750 115.421 C 27.013 117.949, 31.175 120.446, 32 120.969 C 33.568 121.964, 41.933 126.665, 58.031 135.599 C 70.217 142.362, 71.176 142.178, 92.500 129.004 C 95.800 126.965, 103 122.693, 108.500 119.511 C 114 116.329, 119.513 113.102, 120.750 112.340 C 122.836 111.055, 123 110.240, 123 101.144 C 123 95.748, 122.730 91.063, 122.400 90.733 C 122.070 90.403, 118.594 92.128, 114.676 94.567 C 110.758 97.005, 107.225 99, 106.826 99 C 106.427 99, 104.165 100.293, 101.800 101.874 C 99.435 103.454, 94.800 106.183, 91.500 107.939 C 88.200 109.695, 81.900 113.308, 77.500 115.968 L 69.500 120.805 63 117.231 C 59.425 115.265, 55.306 112.834, 53.846 111.828 C 52.386 110.823, 50.932 110, 50.615 110 C 50.298 110, 47.668 108.491, 44.769 106.646 C 41.871 104.801, 35.675 101.148, 31 98.528 C 26.325 95.907, 21.107 92.923, 19.403 91.895 C 17.700 90.867, 16.013 90.321, 15.653 90.680 M 115.917 96.403 C 114.038 97.676, 111.528 99.024, 110.340 99.398 C 109.152 99.771, 107.635 100.735, 106.968 101.539 C 106.301 102.342, 104.933 103, 103.927 103 C 102.922 103, 101.740 103.597, 101.300 104.328 C 100.860 105.058, 97.933 106.942, 94.795 108.514 C 88.519 111.658, 88.301 112.125, 88.839 121.250 C 89.243 128.104, 88.990 128.057, 97.912 122.914 L 105 118.827 105 112.914 C 105 109.638, 105.446 107, 106 107 C 106.550 107, 107 109.250, 107 112 C 107 117.656, 107.392 117.851, 112.693 114.831 C 120.250 110.526, 121 109.357, 121 101.885 C 121 93.917, 120.455 93.329, 115.917 96.403 M 83.653 114.750 C 83.397 115.162, 80.220 117.021, 76.594 118.879 L 70 122.258 70 130.629 C 70 135.233, 70.216 139, 70.481 139 C 70.745 139, 73.423 137.425, 76.433 135.500 C 79.442 133.575, 82.365 132, 82.929 132 C 85.898 132, 88.806 118.732, 86.615 115.186 C 85.785 113.843, 84.347 113.632, 83.653 114.750" stroke="none" fill="black" fill-rule="evenodd"/>
	<path fill-opacity="0.958" d="M 51 37.973 L 51 47.946 58.992 52.556 C 63.388 55.092, 67.244 57.586, 67.561 58.099 C 69.115 60.613, 70 56.952, 70 48.008 L 70 38.134 61.611 33.067 C 50.563 26.394, 51 26.192, 51 37.973 M 33.653 59.680 C 33.294 60.039, 33 64.503, 33 69.599 C 33 80.481, 31.362 78.674, 51.500 90.007 C 58.650 94.031, 65.429 98.151, 66.564 99.162 C 69.820 102.060, 70 101.609, 70 90.568 C 70 78.370, 71.672 80.380, 52.500 69.531 C 45.900 65.796, 39.107 61.905, 37.403 60.884 C 35.700 59.862, 34.013 59.321, 33.653 59.680 M 15.589 90.745 C 14.025 92.308, 15.015 109.702, 16.750 111.164 C 18.269 112.444, 29.584 119.324, 35.500 122.565 C 36.600 123.168, 40.131 125.199, 43.347 127.080 C 60.724 137.242, 66.803 140.290, 68.444 139.660 C 69.681 139.185, 70 137.343, 70 130.686 C 70 121.105, 70.165 121.354, 60 115.599 C 56.425 113.575, 52.825 111.489, 52 110.963 C 51.175 110.438, 45.100 106.928, 38.500 103.163 C 31.900 99.399, 24.177 94.932, 21.339 93.238 C 18.500 91.543, 15.912 90.421, 15.589 90.745" stroke="none" fill="black" fill-rule="evenodd"/>
</svg>