<svg xmlns="http://www.w3.org/2000/svg" width="100%" height="auto" viewBox="0 0 155 159" version="1.1">
	<path d="M 27.218 12.936 C 22.662 13.374, 18.625 14.041, 18.247 14.420 C 16.346 16.321, 22.415 16.971, 42.185 16.985 C 63.110 16.999, 70.545 16.145, 68.375 13.975 C 67.091 12.691, 37.540 11.946, 27.218 12.936 M 92.786 12.875 C 84.711 13.629, 82.933 14.333, 84.685 16.085 C 85.906 17.306, 131.366 16.972, 132.602 15.733 C 133.023 15.312, 132.920 14.520, 132.374 13.974 C 131.109 12.709, 102.946 11.927, 92.786 12.875 M 75.680 19.649 C 73.731 26.603, 74.411 69.744, 76.502 71.835 C 77.770 73.104, 78.403 70.102, 79.257 58.761 C 80.646 40.313, 78 11.372, 75.680 19.649 M 138.717 21.079 C 137.674 27.460, 138.434 68.388, 139.634 70.418 C 140.640 72.120, 140.832 71.894, 141.339 68.418 C 142.045 63.580, 142.431 47.150, 142.185 32.441 C 142.060 24.946, 141.561 20.782, 140.639 19.520 C 139.378 17.796, 139.236 17.911, 138.717 21.079 M 9.995 24.500 C 9.095 28.771, 8.905 35.831, 9.335 49 C 9.931 67.281, 10.483 72, 12.023 72 C 14.305 72, 14.500 26.724, 12.243 21 C 11.346 18.723, 11.145 19.035, 9.995 24.500 M 101 77.079 C 88.467 77.660, 84 78.418, 84 79.963 C 84 81.331, 111.575 82.255, 125.269 81.347 C 137.818 80.515, 141.441 79.179, 134.785 77.839 C 129.565 76.788, 114.567 76.451, 101 77.079 M 24.141 78.005 C 15.663 78.898, 14.066 79.400, 15.417 80.750 C 16.418 81.749, 66.964 81.719, 69.417 80.717 C 70.700 80.194, 71.002 79.602, 70.331 78.931 C 68.981 77.581, 34.686 76.893, 24.141 78.005 M 11.022 91 C 9.434 96.661, 10.092 138.492, 11.796 140.196 C 12.587 140.987, 13.112 140.490, 13.695 138.395 C 14.823 134.339, 14.463 93.147, 13.268 89.500 L 12.284 86.500 11.022 91 M 140.021 91 C 138.424 96.693, 139.104 137.504, 140.825 139.225 C 141.638 140.038, 142.144 139.822, 142.717 138.417 C 143.845 135.655, 143.464 93.069, 142.279 89.500 L 141.284 86.500 140.021 91 M 75.473 101.630 C 74.781 113.633, 75.318 129.557, 76.717 138.500 L 77.343 142.500 78.627 139.500 C 79.541 137.363, 79.889 130.603, 79.837 116 C 79.761 94.794, 79.309 89.934, 77.354 89.284 C 76.556 89.018, 75.984 92.777, 75.473 101.630 M 25 141.598 C 17.749 142.937, 17.409 143.090, 19.313 144.155 C 21.770 145.530, 68.942 145.458, 70.323 144.077 C 70.897 143.503, 71.070 142.736, 70.707 142.373 C 69.942 141.608, 28.731 140.910, 25 141.598 M 86.115 142.399 C 84.514 143.282, 84.116 143.954, 84.903 144.440 C 85.549 144.839, 96.699 145.154, 109.681 145.140 C 131.968 145.115, 136.883 144.550, 134.605 142.272 C 134.187 141.853, 123.642 141.415, 111.172 141.297 C 93.975 141.135, 87.924 141.401, 86.115 142.399" stroke="none" fill="black" fill-rule="evenodd"/>
</svg>