<svg xmlns="http://www.w3.org/2000/svg" width="100%" height="auto" viewBox="0 0 272 370" version="1.1">
	<path d="M 131 23.169 C 129.625 23.742, 122.875 26.219, 116 28.675 C 89.609 38.102, 60.775 48.563, 44.203 54.725 C 36.671 57.525, 31.342 60.101, 30.453 61.371 C 29.203 63.155, 29 79.277, 29 176.592 L 29 289.738 33.750 296.839 C 42.515 309.943, 64.327 339.112, 66.837 341.086 C 69.254 342.988, 71.145 343.033, 136.749 342.770 C 203.979 342.501, 204.182 342.494, 205.839 340.392 C 206.752 339.233, 210.650 333.894, 214.500 328.527 C 218.350 323.161, 225.711 313.085, 230.858 306.135 C 236.006 299.186, 240.618 292.458, 241.108 291.185 C 241.612 289.878, 242 239.673, 242 175.935 C 242 69.451, 241.899 62.899, 240.239 61.239 C 238.582 59.582, 233.958 57.724, 198 44.270 C 190.025 41.286, 178.775 37.062, 173 34.882 C 167.225 32.702, 160.250 30.102, 157.500 29.104 C 154.750 28.105, 149.454 26.099, 145.730 24.644 C 138.538 21.835, 135.041 21.485, 131 23.169 M 122.500 35.953 C 119.750 36.950, 114.350 38.889, 110.500 40.261 C 99.436 44.203, 82.136 50.533, 74.500 53.432 C 70.650 54.894, 64.800 56.977, 61.500 58.062 C 58.200 59.146, 52.688 61.218, 49.250 62.667 C 40.746 66.250, 40.857 67.520, 50.944 82.054 C 55.313 88.349, 61.889 97.899, 65.558 103.276 C 69.227 108.653, 73.048 113.490, 74.049 114.026 C 75.098 114.588, 87.100 115, 102.409 115 L 128.949 115 130.474 112.050 C 132.777 107.596, 132.749 39.515, 130.443 36.223 C 128.620 33.620, 128.909 33.629, 122.500 35.953 M 142.040 35.925 C 141.374 37.170, 141 51.138, 141 74.779 C 141 109.268, 141.120 111.799, 142.829 113.345 C 144.432 114.796, 147.876 115, 170.786 115 L 196.915 115 199.428 111.750 C 206.935 102.041, 223.594 77.678, 226.730 71.821 C 229.949 65.811, 229.272 65.257, 210.500 58.534 C 205.550 56.761, 194.075 52.494, 185 49.051 C 175.925 45.608, 165.575 41.760, 162 40.500 C 158.425 39.240, 153.925 37.547, 152 36.737 C 145.450 33.984, 143.178 33.799, 142.040 35.925 M 38.896 84.625 C 37.727 86.033, 37.456 101.885, 37.229 182.107 C 36.961 276.823, 36.980 277.919, 38.945 278.971 C 40.512 279.809, 43.217 279.246, 51.716 276.310 C 57.647 274.262, 63.512 271.575, 64.750 270.339 L 67 268.091 67 195.281 C 67 122.906, 66.987 122.447, 64.870 118.485 C 63.699 116.293, 61.786 113.305, 60.620 111.845 C 59.454 110.384, 56.475 106.210, 54 102.570 C 41.355 83.969, 40.391 82.824, 38.896 84.625 M 229.888 85.246 C 228.463 86.435, 224.623 91.537, 219.716 98.764 C 218.497 100.560, 214.575 106.185, 211 111.264 L 204.500 120.500 204.231 194.116 C 203.979 263.283, 204.069 267.861, 205.731 269.863 C 207.427 271.907, 227.171 280, 230.460 280 C 231.334 280, 232.495 278.828, 233.040 277.396 C 234.447 273.695, 233.869 86.469, 232.446 85.046 C 231.708 84.308, 230.942 84.368, 229.888 85.246 M 77.571 125.571 C 76.174 126.969, 76 134.686, 76 195.449 C 76 252.804, 76.225 263.942, 77.401 264.918 C 78.500 265.830, 82.334 264.795, 95.151 260.130 C 119.003 251.448, 127.464 248.112, 129.601 246.550 C 131.429 245.213, 131.500 242.963, 131.500 186 C 131.500 128.591, 131.443 126.797, 129.559 125.419 C 126.538 123.211, 79.796 123.347, 77.571 125.571 M 143.223 125.557 L 141 127.113 141 185.902 C 141 240.649, 141.120 244.794, 142.750 246.198 C 144.400 247.620, 153.601 251.506, 169.500 257.496 C 180.586 261.673, 183.732 262.889, 187.977 264.642 C 195.452 267.727, 195 272.180, 195 195.449 C 195 134.686, 194.826 126.969, 193.429 125.571 C 191.096 123.239, 146.550 123.226, 143.223 125.557 M 107.175 265.412 C 91.596 271.098, 78.321 276.278, 77.675 276.923 C 75.889 278.707, 75.454 331.884, 77.206 334.238 C 78.408 335.851, 82.572 335.980, 135.479 336.035 C 188.491 336.091, 192.546 335.974, 193.729 334.357 C 194.684 333.050, 194.992 326.009, 194.968 306.059 C 194.935 278.372, 194.814 277.540, 190.500 275.278 C 187.712 273.816, 137.321 254.992, 136.318 255.037 C 135.868 255.057, 122.754 259.726, 107.175 265.412 M 54.500 284.528 C 44.025 288.906, 42.996 289.598, 43.020 292.258 C 43.031 293.491, 45.393 297.726, 48.270 301.668 C 51.146 305.611, 55.440 311.542, 57.812 314.847 C 63.351 322.569, 64.847 323.854, 66.061 321.936 C 66.561 321.146, 66.976 312.320, 66.985 302.321 C 66.997 287.115, 66.743 283.886, 65.429 282.571 C 63.484 280.627, 64.097 280.517, 54.500 284.528 M 204.485 284.250 C 204.180 285.488, 204.059 294.594, 204.215 304.487 C 204.454 319.541, 204.745 322.517, 206 322.738 C 206.898 322.896, 210.110 319.409, 214 314.053 C 217.575 309.132, 222.188 302.786, 224.250 299.952 C 230.577 291.259, 229.637 289.664, 215.076 284.382 C 206.912 281.421, 205.186 281.399, 204.485 284.250" stroke="none" fill="black" fill-rule="evenodd"/>
</svg>