<svg xmlns="http://www.w3.org/2000/svg" width="100%" height="auto" viewBox="0 0 122 136" version="1.1">
	<path d="M 47.830 28.495 C 39.249 34.736, 30.213 42.015, 27.750 44.671 C 20.162 52.854, 6.003 69.462, 6.001 70.182 C 6 70.899, 12.940 72.535, 32 76.313 L 43.500 78.592 43.772 97.796 L 44.043 117 63.462 117 L 82.880 117 99.928 107.250 C 109.304 101.887, 116.981 97.269, 116.987 96.987 C 116.994 96.704, 109.688 92.257, 100.750 87.105 C 91.813 81.952, 84.393 77.651, 84.263 77.548 C 84.133 77.444, 86.720 69.305, 90.013 59.461 C 93.306 49.617, 96 41.305, 96 40.991 C 96 40.500, 67.332 19.357, 64.466 17.734 C 63.897 17.412, 56.411 22.255, 47.830 28.495 M 48.820 30.338 C 41.297 35.927, 34.812 40.835, 34.410 41.244 C 34.008 41.653, 36.339 49.873, 39.590 59.511 L 45.500 77.034 63.913 76.767 L 82.325 76.500 87.731 59.650 C 90.705 50.383, 92.938 42.283, 92.693 41.650 C 92.171 40.297, 64.430 19.959, 63.282 20.088 C 62.852 20.137, 56.344 24.749, 48.820 30.338 M 28.868 46.281 C 27.971 47.502, 23.359 52.914, 18.618 58.308 C 13.878 63.703, 10 68.433, 10 68.821 C 10 69.208, 16.412 70.834, 24.250 72.433 C 32.087 74.033, 39.288 75.542, 40.250 75.787 C 41.212 76.033, 42 75.754, 42 75.169 C 42 73.259, 31.792 43.999, 31.137 44.031 C 30.787 44.049, 29.766 45.061, 28.868 46.281 M 46 97 L 46 114 63.500 114 L 81 114 81 97 L 81 80 63.500 80 L 46 80 46 97 M 84 96.880 L 84 113.844 96.250 106.801 C 102.987 102.927, 109.553 99.100, 110.841 98.296 C 113.134 96.864, 112.972 96.713, 102.841 90.863 C 97.153 87.579, 90.588 83.772, 88.250 82.404 L 84 79.916 84 96.880" stroke="none" fill="black" fill-rule="evenodd"/>
</svg>