<svg xmlns="http://www.w3.org/2000/svg" width="100%" height="auto" viewBox="0 0 227 220" version="1.1">
	<path d="M 14.667 10.667 C 14.300 11.033, 14 54.893, 14 108.131 C 14 201.526, 14.066 204.965, 15.863 205.926 C 17.072 206.574, 52.159 206.849, 115.899 206.712 C 201.921 206.526, 214.190 206.314, 215.021 205 C 216.062 203.354, 216.425 14.272, 215.393 11.582 C 214.845 10.154, 205.075 10, 115.060 10 C 60.210 10, 15.033 10.300, 14.667 10.667 M 18.667 14.667 C 17.672 15.662, 17.860 192.796, 18.857 193.412 C 19.328 193.703, 20.908 191.817, 22.368 189.221 C 23.828 186.624, 26.255 182.432, 27.761 179.904 C 29.267 177.376, 34.325 168.725, 39 160.679 C 47.375 146.266, 48.730 144.542, 50.655 145.843 C 51.693 146.544, 68.069 174.968, 78.112 193.500 C 79.006 195.150, 80.285 196.500, 80.954 196.500 C 81.912 196.500, 100.319 167.986, 110.003 151.500 C 116.561 140.337, 144.576 96.134, 146.109 94.532 C 147.761 92.805, 148.166 92.744, 149.413 94.032 C 150.534 95.190, 169.312 125.946, 182.396 148.055 C 207.966 191.259, 209.833 194.221, 211.038 193.477 C 212.093 192.825, 212.441 18.313, 211.393 15.582 C 210.845 14.155, 201.427 14, 115.060 14 C 62.410 14, 19.033 14.300, 18.667 14.667 M 145.188 104.306 C 144.119 106.063, 140.819 111.325, 137.856 116 C 134.892 120.675, 130.308 128.100, 127.671 132.500 C 121.161 143.358, 105.601 168.310, 92.436 189 C 89.462 193.675, 86.556 198.287, 85.979 199.250 C 84.984 200.909, 88.128 201, 146.490 201 L 208.051 201 206.383 197.750 C 205.465 195.963, 203.204 192.129, 201.357 189.231 C 199.511 186.332, 198 183.780, 198 183.558 C 198 183.336, 195.019 178.285, 191.375 172.334 C 187.731 166.382, 184.502 160.835, 184.199 160.006 C 183.895 159.178, 182.648 157.150, 181.426 155.500 C 178.409 151.425, 161.508 123.330, 153 108.249 C 151.075 104.836, 148.967 101.834, 148.315 101.578 C 147.664 101.322, 146.256 102.550, 145.188 104.306 M 41.078 166.771 C 36.996 173.772, 31.034 183.908, 27.828 189.297 C 24.623 194.685, 22 199.522, 22 200.047 C 22 200.628, 32.545 201, 49 201 C 70.487 201, 76 200.735, 76 199.700 C 76 198.985, 75.592 197.972, 75.094 197.450 C 74.596 196.927, 73.320 194.925, 72.259 193 C 71.198 191.075, 69.065 187.250, 67.519 184.500 C 65.974 181.750, 63.347 177.025, 61.682 174 C 60.017 170.975, 57.597 166.700, 56.305 164.500 C 55.012 162.300, 53.206 159.037, 52.292 157.250 C 51.378 155.463, 50.150 154.010, 49.565 154.021 C 48.979 154.033, 45.160 159.771, 41.078 166.771" stroke="none" fill="black" fill-rule="evenodd"/>
</svg>