<svg xmlns="http://www.w3.org/2000/svg" width="100%" height="auto" viewBox="0 0 120 122" version="1.1">
	<path d="M 16.864 4.781 L 5.227 5.062 5.207 57.281 C 5.195 86.001, 5.409 110.909, 5.682 112.632 L 6.178 115.764 61.031 115.708 L 115.883 115.651 116.393 112.076 C 116.674 110.109, 116.870 85.213, 116.830 56.750 L 116.756 5 109.628 4.979 C 105.708 4.967, 85.850 4.855, 65.500 4.729 C 45.150 4.603, 23.264 4.626, 16.864 4.781 M 8.963 8.023 C 7.958 8.644, 7.807 111.963, 8.810 112.082 C 9.190 112.128, 33.013 112.240, 61.750 112.332 L 114 112.500 114.046 76 C 114.110 25.615, 113.976 8.642, 113.509 8.175 C 112.904 7.571, 9.937 7.421, 8.963 8.023 M 16.447 16.059 C 14.127 18.623, 15.534 21.500, 19.109 21.500 C 21.858 21.500, 22.965 17.867, 20.954 15.445 C 19.358 13.522, 18.656 13.618, 16.447 16.059 M 59.571 15.571 C 56.439 18.704, 59.321 23.969, 63.069 21.963 C 65.228 20.807, 65.636 17.036, 63.800 15.200 C 62.219 13.619, 61.457 13.685, 59.571 15.571 M 102.521 15.621 C 100.611 17.532, 100.856 19.880, 103.114 21.302 C 106.792 23.618, 109.965 18.365, 106.800 15.200 C 105.211 13.611, 104.458 13.685, 102.521 15.621 M 37.521 36.621 C 34.427 39.716, 38.080 44.699, 41.750 42.388 C 44.815 40.458, 43.522 35, 40 35 C 39.529 35, 38.413 35.730, 37.521 36.621 M 81.544 36.344 C 78.583 38.509, 80.217 43.224, 83.785 42.813 C 85.945 42.564, 86.567 41.909, 86.830 39.609 C 87.298 35.511, 84.796 33.966, 81.544 36.344 M 102.750 58.080 C 99.104 60.204, 102.413 66.920, 106.126 64.933 C 108.237 63.803, 108.616 60.016, 106.800 58.200 C 105.367 56.767, 105.022 56.757, 102.750 58.080 M 15.485 60.048 C 14.193 64.117, 19.806 66.956, 21.866 63.276 C 23.235 60.829, 21.447 58, 18.532 58 C 16.994 58, 15.902 58.734, 15.485 60.048 M 58.485 60.048 C 57.193 64.117, 62.806 66.956, 64.866 63.276 C 66.235 60.829, 64.447 58, 61.532 58 C 59.994 58, 58.902 58.734, 58.485 60.048 M 37 81 C 35.616 83.586, 37.323 87, 40 87 C 42.786 87, 44.379 83.579, 42.782 81.023 C 41.168 78.438, 38.377 78.427, 37 81 M 80.832 81.470 C 79.502 84.389, 81.070 87, 84.154 87 C 86.477 87, 87.430 84.848, 86.589 81.498 C 85.759 78.190, 82.334 78.174, 80.832 81.470 M 15.832 102.470 C 14.971 104.359, 15.005 105.301, 15.975 106.470 C 18.969 110.078, 23.621 106.772, 21.914 102.250 C 20.762 99.198, 17.265 99.325, 15.832 102.470 M 59.521 101.621 C 56.662 104.481, 59.606 109.132, 63.364 107.691 C 65.517 106.865, 65.558 101.428, 63.418 100.607 C 61.297 99.793, 61.368 99.775, 59.521 101.621 M 102.040 101.452 C 99.600 104.392, 102.827 109.048, 106.364 107.691 C 108.517 106.865, 108.558 101.428, 106.418 100.607 C 104.080 99.710, 103.372 99.847, 102.040 101.452" stroke="none" fill="black" fill-rule="evenodd"/>
</svg>